%TF.GenerationSoftware,Altium Limited,Altium Designer,25.1.2 (22)*%
G04 Layer_Color=8388736*
%FSLAX45Y45*%
%MOMM*%
%TF.SameCoordinates,7B8D5602-F935-46BF-9915-1FA99AF71E6F*%
%TF.FilePolarity,Negative*%
%TF.FileFunction,Soldermask,Top*%
%TF.Part,Single*%
%TFFileComment,PewCB.BlankType,3x3Base*%
G01*
G75*
%TA.AperFunction,ViaPad*%
%ADD10C,1.80000*%
%ADD11C,4.40000*%
D10*
X1397001Y-1143001D02*
D03*
Y-889000D02*
D03*
Y-635000D02*
D03*
X1651001Y-381000D02*
D03*
Y-889000D02*
D03*
Y-1143001D02*
D03*
Y-635000D02*
D03*
X1397001Y-381000D02*
D03*
Y-127001D02*
D03*
X1651001Y-127000D02*
D03*
X1397001Y127000D02*
D03*
X1651001D02*
D03*
X1397001Y380999D02*
D03*
X1651001Y381000D02*
D03*
X1651000Y635000D02*
D03*
X1397001Y635000D02*
D03*
Y888999D02*
D03*
X1651001Y889000D02*
D03*
X1651001Y1142999D02*
D03*
X1397000Y1143000D02*
D03*
X-1651000Y-635000D02*
D03*
X-1143000Y1397000D02*
D03*
X1143000Y1397000D02*
D03*
X1143000Y1651000D02*
D03*
X889000Y1397000D02*
D03*
X381000Y1651000D02*
D03*
X-1143000D02*
D03*
X889000Y1651000D02*
D03*
X635000D02*
D03*
X-127000D02*
D03*
X127000D02*
D03*
X-381000D02*
D03*
X-889000D02*
D03*
X-635000Y1651000D02*
D03*
X-381000Y1397000D02*
D03*
X381000Y1397000D02*
D03*
X635000D02*
D03*
X127000D02*
D03*
X-127000D02*
D03*
X-635000D02*
D03*
X-889000D02*
D03*
X-1651000Y-1143000D02*
D03*
X-1397000D02*
D03*
X-1651000Y889000D02*
D03*
X-1397000Y1143000D02*
D03*
Y889000D02*
D03*
X-1651000Y1143000D02*
D03*
X-1397000Y-635000D02*
D03*
X-1651000Y-127000D02*
D03*
X-1397000D02*
D03*
X-1651000Y381000D02*
D03*
X-1397000Y635000D02*
D03*
X-1651000Y-381000D02*
D03*
Y635000D02*
D03*
X-1397000Y-381000D02*
D03*
X-1651000Y127000D02*
D03*
X-1397000D02*
D03*
Y381000D02*
D03*
X-1651000Y-889000D02*
D03*
X-1397000D02*
D03*
D11*
X-1524000Y1524000D02*
D03*
X1524000D02*
D03*
X-1524000Y-1524000D02*
D03*
X1524000D02*
D03*
%TF.MD5,3930c5ccd5708c7333d5a7a2e727dd2f*%
M02*
