%TF.GenerationSoftware,Altium Limited,Altium Designer,25.1.2 (22)*%
G04 Layer_Color=32768*
%FSLAX45Y45*%
%MOMM*%
%TF.SameCoordinates,E75C70CF-4D07-4E77-B0A3-5D46F4AB7E23*%
%TF.FilePolarity,Positive*%
%TF.FileFunction,Other,PCB_Contour*%
%TF.Part,Single*%
%TFFileComment,PewCB.BlankType,3x3Base*%
G01*
G75*
G36*
X1905000Y-1905000D02*
X-1905000D01*
Y1524000D01*
Y1528156D01*
X-1904819Y1536467D01*
X-1904456Y1544771D01*
X-1903913Y1553066D01*
X-1903188Y1561347D01*
X-1902283Y1569610D01*
X-1901198Y1577851D01*
X-1899934Y1586067D01*
X-1898490Y1594253D01*
X-1896868Y1602406D01*
X-1895069Y1610521D01*
X-1893093Y1618595D01*
X-1890942Y1626625D01*
X-1888616Y1634605D01*
X-1886116Y1642533D01*
X-1883445Y1650404D01*
X-1880602Y1658215D01*
X-1877589Y1665962D01*
X-1874408Y1673642D01*
X-1871060Y1681251D01*
X-1867547Y1688784D01*
X-1863870Y1696239D01*
X-1860032Y1703613D01*
X-1856034Y1710901D01*
X-1851878Y1718099D01*
X-1847566Y1725206D01*
X-1843099Y1732216D01*
X-1838481Y1739128D01*
X-1833713Y1745937D01*
X-1828798Y1752641D01*
X-1823738Y1759235D01*
X-1818535Y1765718D01*
X-1813191Y1772086D01*
X-1807711Y1778336D01*
X-1802095Y1784464D01*
X-1796347Y1790469D01*
X-1790469Y1796346D01*
X-1784464Y1802095D01*
X-1778336Y1807710D01*
X-1772086Y1813191D01*
X-1765718Y1818534D01*
X-1759235Y1823737D01*
X-1752641Y1828798D01*
X-1745937Y1833713D01*
X-1739128Y1838481D01*
X-1732216Y1843099D01*
X-1725206Y1847565D01*
X-1718099Y1851877D01*
X-1710901Y1856034D01*
X-1703613Y1860032D01*
X-1696240Y1863870D01*
X-1688785Y1867547D01*
X-1681251Y1871060D01*
X-1673642Y1874407D01*
X-1665963Y1877589D01*
X-1658215Y1880601D01*
X-1650404Y1883444D01*
X-1642533Y1886116D01*
X-1634605Y1888616D01*
X-1626625Y1890942D01*
X-1618596Y1893093D01*
X-1610521Y1895069D01*
X-1602406Y1896868D01*
X-1594253Y1898490D01*
X-1586067Y1899933D01*
X-1577851Y1901198D01*
X-1569610Y1902283D01*
X-1561347Y1903188D01*
X-1553066Y1903912D01*
X-1544771Y1904456D01*
X-1536467Y1904819D01*
X-1528156Y1905000D01*
X1905000D01*
Y-1905000D01*
D02*
G37*
%TF.MD5,b6909c1b84a7c94f80aa936acdf23b8b*%
M02*
