%TF.GenerationSoftware,Altium Limited,Altium Designer,25.1.2 (22)*%
G04 Layer_Color=0*
%FSLAX45Y45*%
%MOMM*%
%TF.SameCoordinates,7B8D5602-F935-46BF-9915-1FA99AF71E6F*%
%TF.FilePolarity,Positive*%
%TF.FileFunction,Plated,1,2,PTH,Drill*%
%TF.Part,Single*%
%TFFileComment,PewCB.BlankType,3x3Base*%
G01*
G75*
%TA.AperFunction,OtherDrill,Pad Free-1 (13.97mm,-11.43mm)*%
%ADD13C,1.00000*%
%TA.AperFunction,OtherDrill,Pad Free-1 (13.97mm,-8.89mm)*%
%ADD14C,1.00000*%
%TA.AperFunction,OtherDrill,Pad Free-1 (13.97mm,-6.35mm)*%
%ADD15C,1.00000*%
%TA.AperFunction,OtherDrill,Pad Free-1 (16.51mm,-3.81mm)*%
%ADD16C,1.00000*%
%TA.AperFunction,OtherDrill,Pad Free-1 (16.51mm,-8.89mm)*%
%ADD17C,1.00000*%
%TA.AperFunction,OtherDrill,Pad Free-1 (16.51mm,-11.43mm)*%
%ADD18C,1.00000*%
%TA.AperFunction,OtherDrill,Pad Free-1 (16.51mm,-6.35mm)*%
%ADD19C,1.00000*%
%TA.AperFunction,OtherDrill,Pad Free-1 (13.97mm,-3.81mm)*%
%ADD20C,1.00000*%
%TA.AperFunction,OtherDrill,Pad Free-1 (13.97mm,-1.27mm)*%
%ADD21C,1.00000*%
%TA.AperFunction,OtherDrill,Pad Free-1 (16.51mm,-1.27mm)*%
%ADD22C,1.00000*%
%TA.AperFunction,OtherDrill,Pad Free-1 (13.97mm,1.27mm)*%
%ADD23C,1.00000*%
%TA.AperFunction,OtherDrill,Pad Free-1 (16.51mm,1.27mm)*%
%ADD24C,1.00000*%
%TA.AperFunction,OtherDrill,Pad Free-1 (13.97mm,3.81mm)*%
%ADD25C,1.00000*%
%TA.AperFunction,OtherDrill,Pad Free-1 (16.51mm,3.81mm)*%
%ADD26C,1.00000*%
%TA.AperFunction,OtherDrill,Pad Free-1 (16.51mm,6.35mm)*%
%ADD27C,1.00000*%
%TA.AperFunction,OtherDrill,Pad Free-1 (13.97mm,6.35mm)*%
%ADD28C,1.00000*%
%TA.AperFunction,OtherDrill,Pad Free-1 (13.97mm,8.89mm)*%
%ADD29C,1.00000*%
%TA.AperFunction,OtherDrill,Pad Free-1 (16.51mm,8.89mm)*%
%ADD30C,1.00000*%
%TA.AperFunction,OtherDrill,Pad Free-1 (16.51mm,11.43mm)*%
%ADD31C,1.00000*%
%TA.AperFunction,OtherDrill,Pad Free-1 (13.97mm,11.43mm)*%
%ADD32C,1.00000*%
%TA.AperFunction,OtherDrill,Pad Free-1 (-16.51mm,-6.35mm)*%
%ADD33C,1.00000*%
%TA.AperFunction,OtherDrill,Pad Free-1 (-11.43mm,13.97mm)*%
%ADD34C,1.00000*%
%TA.AperFunction,OtherDrill,Pad Free-1 (11.43mm,13.97mm)*%
%ADD35C,1.00000*%
%TA.AperFunction,OtherDrill,Pad Free-1 (11.43mm,16.51mm)*%
%ADD36C,1.00000*%
%TA.AperFunction,OtherDrill,Pad Free-1 (8.89mm,13.97mm)*%
%ADD37C,1.00000*%
%TA.AperFunction,OtherDrill,Pad Free-1 (3.81mm,16.51mm)*%
%ADD38C,1.00000*%
%TA.AperFunction,OtherDrill,Pad Free-1 (-11.43mm,16.51mm)*%
%ADD39C,1.00000*%
%TA.AperFunction,OtherDrill,Pad Free-1 (8.89mm,16.51mm)*%
%ADD40C,1.00000*%
%TA.AperFunction,OtherDrill,Pad Free-1 (6.35mm,16.51mm)*%
%ADD41C,1.00000*%
%TA.AperFunction,OtherDrill,Pad Free-1 (-1.27mm,16.51mm)*%
%ADD42C,1.00000*%
%TA.AperFunction,OtherDrill,Pad Free-1 (1.27mm,16.51mm)*%
%ADD43C,1.00000*%
%TA.AperFunction,OtherDrill,Pad Free-1 (-3.81mm,16.51mm)*%
%ADD44C,1.00000*%
%TA.AperFunction,OtherDrill,Pad Free-1 (-8.89mm,16.51mm)*%
%ADD45C,1.00000*%
%TA.AperFunction,OtherDrill,Pad Free-1 (-6.35mm,16.51mm)*%
%ADD46C,1.00000*%
%TA.AperFunction,OtherDrill,Pad Free-1 (-3.81mm,13.97mm)*%
%ADD47C,1.00000*%
%TA.AperFunction,OtherDrill,Pad Free-1 (3.81mm,13.97mm)*%
%ADD48C,1.00000*%
%TA.AperFunction,OtherDrill,Pad Free-1 (6.35mm,13.97mm)*%
%ADD49C,1.00000*%
%TA.AperFunction,OtherDrill,Pad Free-1 (1.27mm,13.97mm)*%
%ADD50C,1.00000*%
%TA.AperFunction,OtherDrill,Pad Free-1 (-1.27mm,13.97mm)*%
%ADD51C,1.00000*%
%TA.AperFunction,OtherDrill,Pad Free-1 (-6.35mm,13.97mm)*%
%ADD52C,1.00000*%
%TA.AperFunction,OtherDrill,Pad Free-1 (-8.89mm,13.97mm)*%
%ADD53C,1.00000*%
%TA.AperFunction,OtherDrill,Pad Free-1 (-16.51mm,-11.43mm)*%
%ADD54C,1.00000*%
%TA.AperFunction,OtherDrill,Pad Free-1 (-13.97mm,-11.43mm)*%
%ADD55C,1.00000*%
%TA.AperFunction,OtherDrill,Pad Free-1 (-16.51mm,8.89mm)*%
%ADD56C,1.00000*%
%TA.AperFunction,OtherDrill,Pad Free-1 (-13.97mm,11.43mm)*%
%ADD57C,1.00000*%
%TA.AperFunction,OtherDrill,Pad Free-1 (-13.97mm,8.89mm)*%
%ADD58C,1.00000*%
%TA.AperFunction,OtherDrill,Pad Free-1 (-16.51mm,11.43mm)*%
%ADD59C,1.00000*%
%TA.AperFunction,OtherDrill,Pad Free-1 (-13.97mm,-6.35mm)*%
%ADD60C,1.00000*%
%TA.AperFunction,OtherDrill,Pad Free-1 (-16.51mm,-1.27mm)*%
%ADD61C,1.00000*%
%TA.AperFunction,OtherDrill,Pad Free-1 (-13.97mm,-1.27mm)*%
%ADD62C,1.00000*%
%TA.AperFunction,OtherDrill,Pad Free-1 (-16.51mm,3.81mm)*%
%ADD63C,1.00000*%
%TA.AperFunction,OtherDrill,Pad Free-1 (-13.97mm,6.35mm)*%
%ADD64C,1.00000*%
%TA.AperFunction,OtherDrill,Pad Free-1 (-16.51mm,-3.81mm)*%
%ADD65C,1.00000*%
%TA.AperFunction,OtherDrill,Pad Free-1 (-16.51mm,6.35mm)*%
%ADD66C,1.00000*%
%TA.AperFunction,OtherDrill,Pad Free-1 (-13.97mm,-3.81mm)*%
%ADD67C,1.00000*%
%TA.AperFunction,OtherDrill,Pad Free-1 (-16.51mm,1.27mm)*%
%ADD68C,1.00000*%
%TA.AperFunction,OtherDrill,Pad Free-1 (-13.97mm,1.27mm)*%
%ADD69C,1.00000*%
%TA.AperFunction,OtherDrill,Pad Free-1 (-13.97mm,3.81mm)*%
%ADD70C,1.00000*%
%TA.AperFunction,OtherDrill,Pad Free-1 (-16.51mm,-8.89mm)*%
%ADD71C,1.00000*%
%TA.AperFunction,OtherDrill,Pad Free-1 (-13.97mm,-8.89mm)*%
%ADD72C,1.00000*%
%TA.AperFunction,OtherDrill,Pad Free-1 (-15.24mm,15.24mm)*%
G04:AMPARAMS|DCode=73|XSize=2.8mm|YSize=2.6mm|CornerRadius=0mm|HoleSize=0mm|Usage=FLASHONLY|Rotation=-45.000|XOffset=0mm|YOffset=0mm|HoleType=Round|Shape=Round|*
%AMOVALD73*
21,1,0.20000,2.60000,0.00000,0.00000,-45.0*
1,1,2.60000,-0.07071,0.07071*
1,1,2.60000,0.07071,-0.07071*
%
%ADD73OVALD73*%

%TA.AperFunction,OtherDrill,Pad Free-2 (15.24mm,15.24mm)*%
G04:AMPARAMS|DCode=74|XSize=2.8mm|YSize=2.6mm|CornerRadius=0mm|HoleSize=0mm|Usage=FLASHONLY|Rotation=45.000|XOffset=0mm|YOffset=0mm|HoleType=Round|Shape=Round|*
%AMOVALD74*
21,1,0.20000,2.60000,0.00000,0.00000,45.0*
1,1,2.60000,-0.07071,-0.07071*
1,1,2.60000,0.07071,0.07071*
%
%ADD74OVALD74*%

%TA.AperFunction,OtherDrill,Pad Free-4 (-15.24mm,-15.24mm)*%
G04:AMPARAMS|DCode=75|XSize=2.8mm|YSize=2.6mm|CornerRadius=0mm|HoleSize=0mm|Usage=FLASHONLY|Rotation=45.000|XOffset=0mm|YOffset=0mm|HoleType=Round|Shape=Round|*
%AMOVALD75*
21,1,0.20000,2.60000,0.00000,0.00000,45.0*
1,1,2.60000,-0.07071,-0.07071*
1,1,2.60000,0.07071,0.07071*
%
%ADD75OVALD75*%

%TA.AperFunction,OtherDrill,Pad Free-3 (15.24mm,-15.24mm)*%
G04:AMPARAMS|DCode=76|XSize=2.8mm|YSize=2.6mm|CornerRadius=0mm|HoleSize=0mm|Usage=FLASHONLY|Rotation=-45.000|XOffset=0mm|YOffset=0mm|HoleType=Round|Shape=Round|*
%AMOVALD76*
21,1,0.20000,2.60000,0.00000,0.00000,-45.0*
1,1,2.60000,-0.07071,0.07071*
1,1,2.60000,0.07071,-0.07071*
%
%ADD76OVALD76*%

%TA.AperFunction,ViaDrill,NotFilled*%
%ADD77C,0.30000*%
D13*
X1397001Y-1143001D02*
D03*
D14*
Y-889000D02*
D03*
D15*
Y-635000D02*
D03*
D16*
X1651001Y-381000D02*
D03*
D17*
Y-889000D02*
D03*
D18*
Y-1143001D02*
D03*
D19*
Y-635000D02*
D03*
D20*
X1397001Y-381000D02*
D03*
D21*
Y-127001D02*
D03*
D22*
X1651001Y-127000D02*
D03*
D23*
X1397001Y127000D02*
D03*
D24*
X1651001D02*
D03*
D25*
X1397001Y380999D02*
D03*
D26*
X1651001Y381000D02*
D03*
D27*
X1651000Y635000D02*
D03*
D28*
X1397001Y635000D02*
D03*
D29*
Y888999D02*
D03*
D30*
X1651001Y889000D02*
D03*
D31*
X1651001Y1142999D02*
D03*
D32*
X1397000Y1143000D02*
D03*
D33*
X-1651000Y-635000D02*
D03*
D34*
X-1143000Y1397000D02*
D03*
D35*
X1143000Y1397000D02*
D03*
D36*
X1143000Y1651000D02*
D03*
D37*
X889000Y1397000D02*
D03*
D38*
X381000Y1651000D02*
D03*
D39*
X-1143000D02*
D03*
D40*
X889000Y1651000D02*
D03*
D41*
X635000D02*
D03*
D42*
X-127000D02*
D03*
D43*
X127000D02*
D03*
D44*
X-381000D02*
D03*
D45*
X-889000D02*
D03*
D46*
X-635000Y1651000D02*
D03*
D47*
X-381000Y1397000D02*
D03*
D48*
X381000Y1397000D02*
D03*
D49*
X635000D02*
D03*
D50*
X127000D02*
D03*
D51*
X-127000D02*
D03*
D52*
X-635000D02*
D03*
D53*
X-889000D02*
D03*
D54*
X-1651000Y-1143000D02*
D03*
D55*
X-1397000D02*
D03*
D56*
X-1651000Y889000D02*
D03*
D57*
X-1397000Y1143000D02*
D03*
D58*
Y889000D02*
D03*
D59*
X-1651000Y1143000D02*
D03*
D60*
X-1397000Y-635000D02*
D03*
D61*
X-1651000Y-127000D02*
D03*
D62*
X-1397000D02*
D03*
D63*
X-1651000Y381000D02*
D03*
D64*
X-1397000Y635000D02*
D03*
D65*
X-1651000Y-381000D02*
D03*
D66*
Y635000D02*
D03*
D67*
X-1397000Y-381000D02*
D03*
D68*
X-1651000Y127000D02*
D03*
D69*
X-1397000D02*
D03*
D70*
Y381000D02*
D03*
D71*
X-1651000Y-889000D02*
D03*
D72*
X-1397000D02*
D03*
D73*
X-1524000Y1524000D02*
D03*
D74*
X1524000D02*
D03*
D75*
X-1524000Y-1524000D02*
D03*
D76*
X1524000D02*
D03*
D77*
X-762000Y-762000D02*
D03*
Y254000D02*
D03*
X-254000Y-762000D02*
D03*
X762000D02*
D03*
Y-254000D02*
D03*
X254000Y-762000D02*
D03*
X-762000Y-254000D02*
D03*
X-254000D02*
D03*
X254000D02*
D03*
X-254000Y254000D02*
D03*
X254000D02*
D03*
X762000D02*
D03*
X-762000Y762000D02*
D03*
X-254000D02*
D03*
X254000D02*
D03*
X762000D02*
D03*
%TF.MD5,ee693c9bca49436de5e7a0826e3710e5*%
M02*
