%TF.GenerationSoftware,Altium Limited,Altium Designer,25.1.2 (22)*%
G04 Layer_Physical_Order=2*
G04 Layer_Color=13712708*
%FSLAX45Y45*%
%MOMM*%
%TF.SameCoordinates,CE447D8B-4DE6-4E9A-82F0-F2A4BC3F84A6*%
%TF.FilePolarity,Positive*%
%TF.FileFunction,Copper,L2,Bot,Signal*%
%TF.Part,Single*%
%TFFileComment,PewCB.BlankType,3x3Base*%
G01*
G75*
%TA.AperFunction,ViaPad*%
%ADD10C,1.80000*%
%ADD11C,4.40000*%
%ADD12C,0.60000*%
G36*
X2646609Y-2646609D02*
X-2646609D01*
Y2286000D01*
Y2309636D01*
X-2640439Y2356503D01*
X-2628205Y2402162D01*
X-2610114Y2445836D01*
X-2586480Y2486773D01*
X-2557703Y2524276D01*
X-2524277Y2557702D01*
X-2486773Y2586479D01*
X-2445837Y2610114D01*
X-2402162Y2628205D01*
X-2356503Y2640439D01*
X-2309636Y2646609D01*
X2646609D01*
Y-2646609D01*
D02*
G37*
D10*
X-2413000Y127000D02*
D03*
X2158999Y1905000D02*
D03*
X2413000Y1905000D02*
D03*
X2413000Y1651000D02*
D03*
X2159000Y1651000D02*
D03*
Y1397000D02*
D03*
X2413000Y1397000D02*
D03*
X2413000Y1143000D02*
D03*
X2159000Y1143000D02*
D03*
X2413000Y889000D02*
D03*
X2159000D02*
D03*
X2413000Y635000D02*
D03*
X2159000Y634999D02*
D03*
Y381000D02*
D03*
X2413000Y127000D02*
D03*
Y-381001D02*
D03*
Y-1142999D02*
D03*
Y-1651000D02*
D03*
Y-1905000D02*
D03*
Y-127000D02*
D03*
Y-635000D02*
D03*
Y-1397000D02*
D03*
Y-889000D02*
D03*
Y381000D02*
D03*
X2159001Y-1143000D02*
D03*
X2159000Y-1905000D02*
D03*
X2159000Y127000D02*
D03*
Y-1651000D02*
D03*
Y-889000D02*
D03*
Y-127000D02*
D03*
Y-635000D02*
D03*
Y-381001D02*
D03*
X2158999Y-1397000D02*
D03*
X-1905000Y2159000D02*
D03*
X1905000Y2413000D02*
D03*
X1651000D02*
D03*
X1905000Y2159000D02*
D03*
X1651000Y2159000D02*
D03*
X1397000D02*
D03*
X1397000Y2413000D02*
D03*
X1143000D02*
D03*
Y2159000D02*
D03*
X889000Y2413000D02*
D03*
Y2159000D02*
D03*
X635000Y2413000D02*
D03*
Y2159000D02*
D03*
X381000D02*
D03*
X381000Y2413000D02*
D03*
X127000Y2159000D02*
D03*
X-381000Y2413000D02*
D03*
X-1905000D02*
D03*
X127000Y2413000D02*
D03*
X-127000D02*
D03*
X-889000D02*
D03*
X-635000D02*
D03*
X-1143000D02*
D03*
X-1651000D02*
D03*
X-1397000Y2413000D02*
D03*
X-1143000Y2159000D02*
D03*
X-381000Y2159000D02*
D03*
X-127000D02*
D03*
X-635000D02*
D03*
X-889000D02*
D03*
X-1397000D02*
D03*
X-1651000D02*
D03*
X-2159000Y-889000D02*
D03*
X-2413000Y-1905000D02*
D03*
Y-1397000D02*
D03*
Y-1651000D02*
D03*
Y-1143000D02*
D03*
Y-889000D02*
D03*
Y-635000D02*
D03*
Y-381000D02*
D03*
X-2159000Y-1397000D02*
D03*
Y-1143000D02*
D03*
Y-1651000D02*
D03*
Y-381000D02*
D03*
Y-1905000D02*
D03*
Y-635000D02*
D03*
X-2413000Y1651000D02*
D03*
X-2159000Y1905000D02*
D03*
Y1651000D02*
D03*
X-2413000Y1905000D02*
D03*
X-2159000Y127000D02*
D03*
X-2413000Y635000D02*
D03*
X-2159000D02*
D03*
X-2413000Y1143000D02*
D03*
X-2159000Y1397000D02*
D03*
X-2413000Y381000D02*
D03*
Y1397000D02*
D03*
X-2159000Y381000D02*
D03*
X-2413000Y889000D02*
D03*
X-2159000D02*
D03*
Y1143000D02*
D03*
X-2413000Y-127000D02*
D03*
X-2159000D02*
D03*
D11*
X-2286000Y2286000D02*
D03*
X2286000D02*
D03*
X-2286000Y-2286000D02*
D03*
X2286000D02*
D03*
D12*
X-1524000Y0D02*
D03*
Y1016000D02*
D03*
Y-1016000D02*
D03*
Y-1524000D02*
D03*
Y-508000D02*
D03*
X-1016000Y-1524000D02*
D03*
Y-1016000D02*
D03*
Y-508000D02*
D03*
Y0D02*
D03*
X-508000Y-1524000D02*
D03*
Y-1016000D02*
D03*
Y-508000D02*
D03*
X0Y-1016000D02*
D03*
Y-1524000D02*
D03*
Y-508000D02*
D03*
Y0D02*
D03*
Y508000D02*
D03*
X-508000Y0D02*
D03*
X-1524000Y508000D02*
D03*
X-1016000D02*
D03*
X-508000D02*
D03*
X-1016000Y1016000D02*
D03*
X-508000D02*
D03*
X0D02*
D03*
X-1524000Y1524000D02*
D03*
X-1016000D02*
D03*
X-508000D02*
D03*
X508000Y-508000D02*
D03*
Y-1524000D02*
D03*
Y-1016000D02*
D03*
Y0D02*
D03*
X1016000Y-1524000D02*
D03*
Y-1016000D02*
D03*
Y0D02*
D03*
Y-508000D02*
D03*
X1524000Y-1016000D02*
D03*
Y-1524000D02*
D03*
Y0D02*
D03*
Y-508000D02*
D03*
X508000Y508000D02*
D03*
Y1016000D02*
D03*
Y1524000D02*
D03*
X1016000Y508000D02*
D03*
Y1524000D02*
D03*
Y1016000D02*
D03*
X1524000Y508000D02*
D03*
Y1016000D02*
D03*
Y1524000D02*
D03*
X0D02*
D03*
%TF.MD5,e5f703e2c15aa70b93ff3193ef72131f*%
M02*
