%TF.GenerationSoftware,Altium Limited,Altium Designer,25.1.2 (22)*%
G04 Layer_Physical_Order=2*
G04 Layer_Color=13712708*
%FSLAX45Y45*%
%MOMM*%
%TF.SameCoordinates,09D3B785-51EB-45CE-83F7-DB174F663C87*%
%TF.FilePolarity,Positive*%
%TF.FileFunction,Copper,L2,Bot,Signal*%
%TF.Part,Single*%
%TFFileComment,PewCB.BlankType,3x3Base*%
G01*
G75*
%TA.AperFunction,ViaPad*%
%ADD10C,1.80000*%
%ADD11C,4.40000*%
%ADD12C,0.60000*%
G36*
X2667000Y-2667000D02*
X-2667000D01*
Y2286000D01*
Y2290156D01*
X-2666819Y2298467D01*
X-2666456Y2306771D01*
X-2665913Y2315066D01*
X-2665188Y2323347D01*
X-2664283Y2331610D01*
X-2663198Y2339851D01*
X-2661934Y2348067D01*
X-2660490Y2356253D01*
X-2658868Y2364406D01*
X-2657069Y2372521D01*
X-2655093Y2380595D01*
X-2652942Y2388625D01*
X-2650616Y2396605D01*
X-2648116Y2404533D01*
X-2645445Y2412404D01*
X-2642602Y2420215D01*
X-2639589Y2427962D01*
X-2636408Y2435642D01*
X-2633060Y2443251D01*
X-2629547Y2450784D01*
X-2625870Y2458239D01*
X-2622032Y2465613D01*
X-2618034Y2472901D01*
X-2613878Y2480099D01*
X-2609566Y2487206D01*
X-2605099Y2494216D01*
X-2600481Y2501128D01*
X-2595713Y2507937D01*
X-2590798Y2514641D01*
X-2585738Y2521235D01*
X-2580535Y2527718D01*
X-2575191Y2534086D01*
X-2569711Y2540336D01*
X-2564095Y2546464D01*
X-2558347Y2552469D01*
X-2552469Y2558346D01*
X-2546464Y2564095D01*
X-2540336Y2569710D01*
X-2534086Y2575191D01*
X-2527718Y2580534D01*
X-2521235Y2585737D01*
X-2514641Y2590798D01*
X-2507937Y2595713D01*
X-2501128Y2600481D01*
X-2494216Y2605099D01*
X-2487206Y2609565D01*
X-2480099Y2613877D01*
X-2472901Y2618034D01*
X-2465613Y2622032D01*
X-2458240Y2625870D01*
X-2450785Y2629547D01*
X-2443251Y2633060D01*
X-2435642Y2636407D01*
X-2427963Y2639589D01*
X-2420215Y2642601D01*
X-2412404Y2645444D01*
X-2404533Y2648116D01*
X-2396605Y2650616D01*
X-2388625Y2652942D01*
X-2380596Y2655093D01*
X-2372521Y2657069D01*
X-2364406Y2658868D01*
X-2356253Y2660490D01*
X-2348067Y2661933D01*
X-2339851Y2663198D01*
X-2331610Y2664283D01*
X-2323347Y2665188D01*
X-2315066Y2665912D01*
X-2306771Y2666456D01*
X-2298467Y2666819D01*
X-2290156Y2667000D01*
X2667000D01*
Y-2667000D01*
D02*
G37*
D10*
X-2413000Y127000D02*
D03*
X2158999Y1905000D02*
D03*
X2413000Y1905000D02*
D03*
X2413000Y1651000D02*
D03*
X2159000Y1651000D02*
D03*
Y1397000D02*
D03*
X2413000Y1397000D02*
D03*
X2413000Y1143000D02*
D03*
X2159000Y1143000D02*
D03*
X2413000Y889000D02*
D03*
X2159000D02*
D03*
X2413000Y635000D02*
D03*
X2159000Y634999D02*
D03*
Y381000D02*
D03*
X2413000Y127000D02*
D03*
Y-381001D02*
D03*
Y-1142999D02*
D03*
Y-1651000D02*
D03*
Y-1905000D02*
D03*
Y-127000D02*
D03*
Y-635000D02*
D03*
Y-1397000D02*
D03*
Y-889000D02*
D03*
Y381000D02*
D03*
X2159001Y-1143000D02*
D03*
X2159000Y-1905000D02*
D03*
X2159000Y127000D02*
D03*
Y-1651000D02*
D03*
Y-889000D02*
D03*
Y-127000D02*
D03*
Y-635000D02*
D03*
Y-381001D02*
D03*
X2158999Y-1397000D02*
D03*
X-1905000Y2159000D02*
D03*
X1905000Y2413000D02*
D03*
X1651000D02*
D03*
X1905000Y2159000D02*
D03*
X1651000Y2159000D02*
D03*
X1397000D02*
D03*
X1397000Y2413000D02*
D03*
X1143000D02*
D03*
Y2159000D02*
D03*
X889000Y2413000D02*
D03*
Y2159000D02*
D03*
X635000Y2413000D02*
D03*
Y2159000D02*
D03*
X381000D02*
D03*
X381000Y2413000D02*
D03*
X127000Y2159000D02*
D03*
X-381000Y2413000D02*
D03*
X-1905000D02*
D03*
X127000Y2413000D02*
D03*
X-127000D02*
D03*
X-889000D02*
D03*
X-635000D02*
D03*
X-1143000D02*
D03*
X-1651000D02*
D03*
X-1397000Y2413000D02*
D03*
X-1143000Y2159000D02*
D03*
X-381000Y2159000D02*
D03*
X-127000D02*
D03*
X-635000D02*
D03*
X-889000D02*
D03*
X-1397000D02*
D03*
X-1651000D02*
D03*
X-2159000Y-889000D02*
D03*
X-2413000Y-1905000D02*
D03*
Y-1397000D02*
D03*
Y-1651000D02*
D03*
Y-1143000D02*
D03*
Y-889000D02*
D03*
Y-635000D02*
D03*
Y-381000D02*
D03*
X-2159000Y-1397000D02*
D03*
Y-1143000D02*
D03*
Y-1651000D02*
D03*
Y-381000D02*
D03*
Y-1905000D02*
D03*
Y-635000D02*
D03*
X-2413000Y1651000D02*
D03*
X-2159000Y1905000D02*
D03*
Y1651000D02*
D03*
X-2413000Y1905000D02*
D03*
X-2159000Y127000D02*
D03*
X-2413000Y635000D02*
D03*
X-2159000D02*
D03*
X-2413000Y1143000D02*
D03*
X-2159000Y1397000D02*
D03*
X-2413000Y381000D02*
D03*
Y1397000D02*
D03*
X-2159000Y381000D02*
D03*
X-2413000Y889000D02*
D03*
X-2159000D02*
D03*
Y1143000D02*
D03*
X-2413000Y-127000D02*
D03*
X-2159000D02*
D03*
D11*
X-2286000Y2286000D02*
D03*
X2286000D02*
D03*
X-2286000Y-2286000D02*
D03*
X2286000D02*
D03*
D12*
X-1524000Y0D02*
D03*
Y1016000D02*
D03*
Y-1016000D02*
D03*
Y-1524000D02*
D03*
Y-508000D02*
D03*
X-1016000Y-1524000D02*
D03*
Y-1016000D02*
D03*
Y-508000D02*
D03*
Y0D02*
D03*
X-508000Y-1524000D02*
D03*
Y-1016000D02*
D03*
Y-508000D02*
D03*
X0Y-1016000D02*
D03*
Y-1524000D02*
D03*
Y-508000D02*
D03*
Y0D02*
D03*
Y508000D02*
D03*
X-508000Y0D02*
D03*
X-1524000Y508000D02*
D03*
X-1016000D02*
D03*
X-508000D02*
D03*
X-1016000Y1016000D02*
D03*
X-508000D02*
D03*
X0D02*
D03*
X-1524000Y1524000D02*
D03*
X-1016000D02*
D03*
X-508000D02*
D03*
X508000Y-508000D02*
D03*
Y-1524000D02*
D03*
Y-1016000D02*
D03*
Y0D02*
D03*
X1016000Y-1524000D02*
D03*
Y-1016000D02*
D03*
Y0D02*
D03*
Y-508000D02*
D03*
X1524000Y-1016000D02*
D03*
Y-1524000D02*
D03*
Y0D02*
D03*
Y-508000D02*
D03*
X508000Y508000D02*
D03*
Y1016000D02*
D03*
Y1524000D02*
D03*
X1016000Y508000D02*
D03*
Y1524000D02*
D03*
Y1016000D02*
D03*
X1524000Y508000D02*
D03*
Y1016000D02*
D03*
Y1524000D02*
D03*
X0D02*
D03*
%TF.MD5,7f02a5655f3ac452b80eb10cf7d5de2c*%
M02*
