%TF.GenerationSoftware,Altium Limited,Altium Designer,25.1.2 (22)*%
G04 Layer_Color=0*
%FSLAX45Y45*%
%MOMM*%
%TF.SameCoordinates,2DAC12E3-7C5A-419B-8450-1104A945EB66*%
%TF.FilePolarity,Positive*%
%TF.FileFunction,Plated,1,2,PTH,Drill*%
%TF.Part,Single*%
%TFFileComment,PewCB.BlankType,5x5Base*%
G01*
G75*
%TA.AperFunction,OtherDrill,Pad Free-1 (-34.29mm,34.29mm)*%
G04:AMPARAMS|DCode=15|XSize=2.8mm|YSize=2.6mm|CornerRadius=0mm|HoleSize=0mm|Usage=FLASHONLY|Rotation=-45.000|XOffset=0mm|YOffset=0mm|HoleType=Round|Shape=Round|*
%AMOVALD15*
21,1,0.20000,2.60000,0.00000,0.00000,-45.0*
1,1,2.60000,-0.07071,0.07071*
1,1,2.60000,0.07071,-0.07071*
%
%ADD15OVALD15*%

%TA.AperFunction,OtherDrill,Pad Free-2 (34.29mm,34.29mm)*%
G04:AMPARAMS|DCode=16|XSize=2.8mm|YSize=2.6mm|CornerRadius=0mm|HoleSize=0mm|Usage=FLASHONLY|Rotation=45.000|XOffset=0mm|YOffset=0mm|HoleType=Round|Shape=Round|*
%AMOVALD16*
21,1,0.20000,2.60000,0.00000,0.00000,45.0*
1,1,2.60000,-0.07071,-0.07071*
1,1,2.60000,0.07071,0.07071*
%
%ADD16OVALD16*%

%TA.AperFunction,OtherDrill,Pad Free-4 (-34.29mm,-34.29mm)*%
G04:AMPARAMS|DCode=17|XSize=2.8mm|YSize=2.6mm|CornerRadius=0mm|HoleSize=0mm|Usage=FLASHONLY|Rotation=45.000|XOffset=0mm|YOffset=0mm|HoleType=Round|Shape=Round|*
%AMOVALD17*
21,1,0.20000,2.60000,0.00000,0.00000,45.0*
1,1,2.60000,-0.07071,-0.07071*
1,1,2.60000,0.07071,0.07071*
%
%ADD17OVALD17*%

%TA.AperFunction,OtherDrill,Pad Free-3 (34.29mm,-34.29mm)*%
G04:AMPARAMS|DCode=18|XSize=2.8mm|YSize=2.6mm|CornerRadius=0mm|HoleSize=0mm|Usage=FLASHONLY|Rotation=-45.000|XOffset=0mm|YOffset=0mm|HoleType=Round|Shape=Round|*
%AMOVALD18*
21,1,0.20000,2.60000,0.00000,0.00000,-45.0*
1,1,2.60000,-0.07071,0.07071*
1,1,2.60000,0.07071,-0.07071*
%
%ADD18OVALD18*%

%TA.AperFunction,ViaDrill,NotFilled*%
%ADD19C,0.30000*%
%ADD20C,1.00000*%
D15*
X-3429000Y3429000D02*
D03*
D16*
X3429000D02*
D03*
D17*
X-3429000Y-3429000D02*
D03*
D18*
X3429000D02*
D03*
D19*
X-1016000Y-1016000D02*
D03*
Y-1524000D02*
D03*
Y-2540000D02*
D03*
X-1524000Y-1524000D02*
D03*
Y-2540000D02*
D03*
Y-2032000D02*
D03*
X-2032000Y-1524000D02*
D03*
Y-2032000D02*
D03*
Y-2540000D02*
D03*
X-2540000Y-1016000D02*
D03*
Y-1524000D02*
D03*
Y-2540000D02*
D03*
Y-2032000D02*
D03*
X-1016000D02*
D03*
X508000Y-1016000D02*
D03*
Y-2540000D02*
D03*
Y-2032000D02*
D03*
Y-1524000D02*
D03*
X0Y-1016000D02*
D03*
Y-2540000D02*
D03*
Y-1524000D02*
D03*
Y-2032000D02*
D03*
X-508000Y-1016000D02*
D03*
Y-2032000D02*
D03*
Y-1524000D02*
D03*
Y-2540000D02*
D03*
X-1524000Y-1016000D02*
D03*
X-2032000D02*
D03*
X1524000Y-2540000D02*
D03*
Y-1524000D02*
D03*
Y-2032000D02*
D03*
Y-1016000D02*
D03*
X2032000Y-2032000D02*
D03*
Y-1524000D02*
D03*
Y-2540000D02*
D03*
Y-1016000D02*
D03*
X2540000Y-1524000D02*
D03*
Y-2032000D02*
D03*
Y-2540000D02*
D03*
Y-1016000D02*
D03*
X1016000Y-2032000D02*
D03*
Y-2540000D02*
D03*
Y-1524000D02*
D03*
Y-1016000D02*
D03*
Y1016000D02*
D03*
Y508000D02*
D03*
Y2540000D02*
D03*
Y2032000D02*
D03*
Y-508000D02*
D03*
Y0D02*
D03*
X2540000Y2032000D02*
D03*
Y1524000D02*
D03*
Y2540000D02*
D03*
X1524000D02*
D03*
Y2032000D02*
D03*
Y1524000D02*
D03*
X2032000Y2540000D02*
D03*
Y1524000D02*
D03*
Y2032000D02*
D03*
X2540000Y1016000D02*
D03*
Y-508000D02*
D03*
Y0D02*
D03*
Y508000D02*
D03*
X2032000Y1016000D02*
D03*
Y-508000D02*
D03*
Y508000D02*
D03*
Y0D02*
D03*
X1524000Y1016000D02*
D03*
Y0D02*
D03*
Y508000D02*
D03*
Y-508000D02*
D03*
X1016000Y1524000D02*
D03*
X-1016000D02*
D03*
X-2032000Y1016000D02*
D03*
X-1524000D02*
D03*
X-2540000Y1524000D02*
D03*
X-2032000D02*
D03*
X-1524000D02*
D03*
X-508000Y-508000D02*
D03*
Y508000D02*
D03*
Y0D02*
D03*
Y1016000D02*
D03*
X0Y0D02*
D03*
Y508000D02*
D03*
Y-508000D02*
D03*
Y1016000D02*
D03*
X508000Y508000D02*
D03*
Y0D02*
D03*
Y-508000D02*
D03*
Y1016000D02*
D03*
X0Y2032000D02*
D03*
Y1524000D02*
D03*
Y2540000D02*
D03*
X-508000Y1524000D02*
D03*
Y2032000D02*
D03*
Y2540000D02*
D03*
X508000D02*
D03*
Y1524000D02*
D03*
Y2032000D02*
D03*
X-1016000Y0D02*
D03*
X-2540000D02*
D03*
Y-508000D02*
D03*
Y508000D02*
D03*
Y1016000D02*
D03*
X-2032000Y-508000D02*
D03*
Y0D02*
D03*
Y508000D02*
D03*
X-1524000Y0D02*
D03*
Y-508000D02*
D03*
Y508000D02*
D03*
X-1016000Y-508000D02*
D03*
X-1524000Y2540000D02*
D03*
X-2540000Y2032000D02*
D03*
X-2032000D02*
D03*
X-1524000D02*
D03*
X-1016000D02*
D03*
X-2540000Y2540000D02*
D03*
X-2032000D02*
D03*
X-1016000D02*
D03*
Y508000D02*
D03*
Y1016000D02*
D03*
D20*
X2921000Y3556000D02*
D03*
X2667000D02*
D03*
X2921000Y3302000D02*
D03*
X2667000Y3302000D02*
D03*
X2413000D02*
D03*
X2413000Y3556000D02*
D03*
X2159000D02*
D03*
Y3302000D02*
D03*
X1905000Y3556000D02*
D03*
Y3302000D02*
D03*
X1651000Y3556000D02*
D03*
Y3302000D02*
D03*
X1397000D02*
D03*
X1397000Y3556000D02*
D03*
X1143000Y3302000D02*
D03*
Y3556000D02*
D03*
X-3556001Y-1905000D02*
D03*
X-3556001Y-1143000D02*
D03*
Y-1397000D02*
D03*
Y-2159000D02*
D03*
X-3556000Y-2413000D02*
D03*
X-3556000Y-1651000D02*
D03*
X-3302001Y-1397000D02*
D03*
Y-1905000D02*
D03*
Y-1143000D02*
D03*
Y-2413000D02*
D03*
Y-2159000D02*
D03*
Y-1650999D02*
D03*
X-3302000Y-2921001D02*
D03*
Y-2667000D02*
D03*
X-3556000Y-2921000D02*
D03*
X-3556001Y-2667000D02*
D03*
X3301999D02*
D03*
X3302000Y-2921000D02*
D03*
X3556000Y-2667000D02*
D03*
Y-2921001D02*
D03*
X3555999Y-1650999D02*
D03*
Y-2159000D02*
D03*
Y-2413000D02*
D03*
Y-1143000D02*
D03*
Y-1905000D02*
D03*
Y-1397000D02*
D03*
X3302000Y-1651000D02*
D03*
X3302000Y-2413000D02*
D03*
X3301999Y-2159000D02*
D03*
Y-1397000D02*
D03*
Y-1143000D02*
D03*
X3301999Y-1905000D02*
D03*
X-2667000Y3302000D02*
D03*
X-2413001D02*
D03*
X-1905000D02*
D03*
X-1651000D02*
D03*
X-1143000D02*
D03*
X-1397001D02*
D03*
X-2159000Y3302000D02*
D03*
X-2413000Y3555999D02*
D03*
X-2667000Y3556000D02*
D03*
X-2159000D02*
D03*
X-1651001D02*
D03*
X-1905000D02*
D03*
X-1143000D02*
D03*
X-889000D02*
D03*
X-2921000Y3556000D02*
D03*
X-1397000D02*
D03*
X-889000Y3302000D02*
D03*
X-635000Y3556000D02*
D03*
X-635000Y3302000D02*
D03*
X-381000D02*
D03*
Y3556000D02*
D03*
X-127000Y3302000D02*
D03*
Y3556000D02*
D03*
X126999Y3302000D02*
D03*
Y3556000D02*
D03*
X381000D02*
D03*
X381000Y3302000D02*
D03*
X634999D02*
D03*
X889000Y3302000D02*
D03*
X635000Y3556000D02*
D03*
X889000D02*
D03*
X-2921000Y3301999D02*
D03*
X-3556001Y-889000D02*
D03*
Y-381000D02*
D03*
Y-635000D02*
D03*
Y-127000D02*
D03*
Y127000D02*
D03*
Y381000D02*
D03*
Y635000D02*
D03*
Y889000D02*
D03*
X-3302001Y635000D02*
D03*
Y-635000D02*
D03*
Y-127000D02*
D03*
Y-381000D02*
D03*
Y-889000D02*
D03*
Y127000D02*
D03*
Y381000D02*
D03*
Y889000D02*
D03*
X-3556001Y2413000D02*
D03*
Y2667000D02*
D03*
Y1143000D02*
D03*
X-3302001Y1651000D02*
D03*
X-3556001D02*
D03*
Y1397000D02*
D03*
Y2921000D02*
D03*
Y2159000D02*
D03*
Y1905000D02*
D03*
X-3302001Y1143000D02*
D03*
Y1397000D02*
D03*
Y1905000D02*
D03*
Y2159000D02*
D03*
Y2413000D02*
D03*
Y2667000D02*
D03*
Y2921000D02*
D03*
X3301999Y-380999D02*
D03*
X3301999Y635000D02*
D03*
Y381000D02*
D03*
Y889000D02*
D03*
Y127000D02*
D03*
Y-634999D02*
D03*
Y1143000D02*
D03*
X3301999Y-889000D02*
D03*
X3302000Y-126999D02*
D03*
X3555999Y1397000D02*
D03*
Y127000D02*
D03*
Y-381000D02*
D03*
Y381000D02*
D03*
Y889000D02*
D03*
Y-889000D02*
D03*
Y-635000D02*
D03*
Y-126999D02*
D03*
Y635000D02*
D03*
Y1143000D02*
D03*
X3301999Y1397001D02*
D03*
Y1651000D02*
D03*
X3555999Y1651001D02*
D03*
X3301999Y1905000D02*
D03*
X3555999D02*
D03*
X3301999Y2159000D02*
D03*
X3555999Y2159000D02*
D03*
X3555999Y2413000D02*
D03*
X3301999Y2413001D02*
D03*
Y2667000D02*
D03*
X3555999Y2667000D02*
D03*
X3555999Y2921000D02*
D03*
X3301999Y2921001D02*
D03*
%TF.MD5,04cb0f2dc3cd511c549d0fb68a5a35da*%
M02*
