%TF.GenerationSoftware,Altium Limited,Altium Designer,25.1.2 (22)*%
G04 Layer_Color=32768*
%FSLAX45Y45*%
%MOMM*%
%TF.SameCoordinates,57715C49-F37B-41DA-B7F2-3D3F1A371402*%
%TF.FilePolarity,Positive*%
%TF.FileFunction,Other,PCB_Contour*%
%TF.Part,Single*%
%TFFileComment,PewCB.BlankType,5x5Base*%
G01*
G75*
G36*
X4191000Y-4191000D02*
X-4191000D01*
X-4191001Y3810000D01*
Y3814156D01*
X-4190820Y3822467D01*
X-4190457Y3830771D01*
X-4189914Y3839066D01*
X-4189189Y3847347D01*
X-4188284Y3855610D01*
X-4187199Y3863851D01*
X-4185934Y3872067D01*
X-4184491Y3880253D01*
X-4182869Y3888406D01*
X-4181070Y3896521D01*
X-4179095Y3904595D01*
X-4176943Y3912625D01*
X-4174617Y3920605D01*
X-4172117Y3928533D01*
X-4169445Y3936404D01*
X-4166602Y3944215D01*
X-4163590Y3951963D01*
X-4160408Y3959642D01*
X-4157061Y3967251D01*
X-4153548Y3974785D01*
X-4149871Y3982240D01*
X-4146033Y3989613D01*
X-4142035Y3996901D01*
X-4137878Y4004099D01*
X-4133566Y4011206D01*
X-4129100Y4018216D01*
X-4124482Y4025128D01*
X-4119714Y4031937D01*
X-4114798Y4038641D01*
X-4109738Y4045235D01*
X-4104535Y4051718D01*
X-4099192Y4058086D01*
X-4093711Y4064336D01*
X-4088095Y4070464D01*
X-4082347Y4076469D01*
X-4076469Y4082347D01*
X-4070465Y4088095D01*
X-4064336Y4093711D01*
X-4058087Y4099191D01*
X-4051719Y4104535D01*
X-4045236Y4109738D01*
X-4038641Y4114798D01*
X-4031938Y4119713D01*
X-4025129Y4124481D01*
X-4018217Y4129099D01*
X-4011206Y4133565D01*
X-4004100Y4137878D01*
X-3996901Y4142034D01*
X-3989613Y4146032D01*
X-3982240Y4149870D01*
X-3974785Y4153547D01*
X-3967251Y4157060D01*
X-3959643Y4160408D01*
X-3951963Y4163589D01*
X-3944216Y4166601D01*
X-3936404Y4169444D01*
X-3928533Y4172116D01*
X-3920605Y4174616D01*
X-3912625Y4176942D01*
X-3904596Y4179093D01*
X-3896522Y4181069D01*
X-3888406Y4182868D01*
X-3880253Y4184490D01*
X-3872067Y4185933D01*
X-3863851Y4187198D01*
X-3855610Y4188283D01*
X-3847347Y4189188D01*
X-3839066Y4189912D01*
X-3830771Y4190456D01*
X-3822467Y4190819D01*
X-3814156Y4191000D01*
X-3810000Y4191000D01*
Y4191000D01*
X4191000D01*
X4191000Y-4191000D01*
D02*
G37*
%TF.MD5,a50add398c8e19a6a016d26b80a3f0f0*%
M02*
