%TF.GenerationSoftware,Altium Limited,Altium Designer,25.1.2 (22)*%
G04 Layer_Color=8388736*
%FSLAX43Y43*%
%MOMM*%
%TF.SameCoordinates,496C93C7-7E42-4A3D-ABFD-B4F6D8B84948*%
%TF.FilePolarity,Negative*%
%TF.FileFunction,Soldermask,Top*%
%TF.Part,Single*%
%TFFileComment,{"PewCB.BlankType":"3x3Base"}*%
G01*
G75*
%TA.AperFunction,ViaPad*%
%ADD13C,4.450*%
%ADD14C,1.650*%
D13*
X22860Y22860D02*
D03*
X-22860D02*
D03*
X22860Y-22860D02*
D03*
X-22860D02*
D03*
D14*
X19050Y21590D02*
D03*
Y24130D02*
D03*
X3810Y24130D02*
D03*
X-3810D02*
D03*
X-19050D02*
D03*
X13970Y21590D02*
D03*
X11430Y24130D02*
D03*
X13970D02*
D03*
X1270Y21590D02*
D03*
Y24130D02*
D03*
X3810Y21590D02*
D03*
X6350Y24130D02*
D03*
Y21590D02*
D03*
X8890Y24130D02*
D03*
Y21590D02*
D03*
X-8890D02*
D03*
Y24130D02*
D03*
X-6350D02*
D03*
X-1270Y21590D02*
D03*
X16510D02*
D03*
X-6350D02*
D03*
X-3810D02*
D03*
X-1270Y24130D02*
D03*
X-11430Y21590D02*
D03*
X-11430Y24130D02*
D03*
X-13970Y21590D02*
D03*
X-13970Y24130D02*
D03*
X-16510Y21590D02*
D03*
X-16510Y24130D02*
D03*
X-19050Y21590D02*
D03*
X11430Y21590D02*
D03*
X16510Y24130D02*
D03*
X21590Y19050D02*
D03*
X24130Y19050D02*
D03*
X24130Y16510D02*
D03*
X21590Y16510D02*
D03*
X24130Y13970D02*
D03*
X21590Y13970D02*
D03*
X24130Y11430D02*
D03*
X21590Y11430D02*
D03*
X21590Y1270D02*
D03*
X24130D02*
D03*
X21590Y3810D02*
D03*
X24130Y3810D02*
D03*
X21590Y6350D02*
D03*
X24130Y6350D02*
D03*
Y8890D02*
D03*
X21590D02*
D03*
Y-8890D02*
D03*
X24130D02*
D03*
X21590Y-6350D02*
D03*
X24130D02*
D03*
X21590Y-3810D02*
D03*
X24130D02*
D03*
Y-1270D02*
D03*
X21590D02*
D03*
X21590Y-19050D02*
D03*
X24130Y-19050D02*
D03*
X21590Y-16510D02*
D03*
X24130Y-16510D02*
D03*
X21590Y-13970D02*
D03*
X24130Y-13970D02*
D03*
Y-11430D02*
D03*
X21590Y-11430D02*
D03*
X-24130Y-11430D02*
D03*
X-21590D02*
D03*
Y-13970D02*
D03*
X-24130D02*
D03*
X-21590Y-16510D02*
D03*
X-24130D02*
D03*
X-21590Y-19050D02*
D03*
X-24130D02*
D03*
Y-1270D02*
D03*
X-21590D02*
D03*
Y-3810D02*
D03*
X-24130D02*
D03*
X-21590Y-6350D02*
D03*
X-24130D02*
D03*
X-21590Y-8890D02*
D03*
X-24130D02*
D03*
Y8890D02*
D03*
X-21590D02*
D03*
Y6350D02*
D03*
X-24130D02*
D03*
X-21590Y3810D02*
D03*
X-24130D02*
D03*
X-21590Y1270D02*
D03*
X-24130D02*
D03*
Y11430D02*
D03*
X-21590D02*
D03*
X-24130Y13970D02*
D03*
X-21590D02*
D03*
X-24130Y16510D02*
D03*
X-21590D02*
D03*
Y19050D02*
D03*
X-24130D02*
D03*
%TF.MD5,9ebe49177761a218cdaa922df67c72fe*%
M02*
