%TF.GenerationSoftware,Altium Limited,Altium Designer,25.1.2 (22)*%
G04 Layer_Physical_Order=1*
G04 Layer_Color=3750343*
%FSLAX43Y43*%
%MOMM*%
%TF.SameCoordinates,496C93C7-7E42-4A3D-ABFD-B4F6D8B84948*%
%TF.FilePolarity,Positive*%
%TF.FileFunction,Copper,L1,Top,Signal*%
%TF.Part,Single*%
%TFFileComment,{"PewCB.BlankType":"3x3Base"}*%
G01*
G75*
%TA.AperFunction,ViaPad*%
%ADD10C,4.400*%
%ADD11C,0.600*%
%ADD12C,1.600*%
G36*
X26670Y-26670D02*
X-26670D01*
Y22860D01*
Y23110D01*
X-26605Y23605D01*
X-26476Y24087D01*
X-26284Y24549D01*
X-26035Y24981D01*
X-25731Y25378D01*
X-25378Y25731D01*
X-24981Y26035D01*
X-24549Y26284D01*
X-24087Y26476D01*
X-23605Y26605D01*
X-23110Y26670D01*
X26670D01*
Y-26670D01*
D02*
G37*
D10*
X22860Y22860D02*
D03*
X-22860D02*
D03*
X22860Y-22860D02*
D03*
X-22860D02*
D03*
D11*
X-5080Y-15240D02*
D03*
X0D02*
D03*
X5080D02*
D03*
X-15240D02*
D03*
X-10160D02*
D03*
X10160D02*
D03*
X15240D02*
D03*
X-5080Y-5080D02*
D03*
X0D02*
D03*
X5080D02*
D03*
Y-10160D02*
D03*
X0D02*
D03*
X-5080D02*
D03*
X-10160D02*
D03*
X10160D02*
D03*
X15240D02*
D03*
X-15240D02*
D03*
Y-5080D02*
D03*
X-10160D02*
D03*
X10160D02*
D03*
X15240D02*
D03*
X-5080Y15240D02*
D03*
X0D02*
D03*
X5080D02*
D03*
Y10160D02*
D03*
X0D02*
D03*
X-5080D02*
D03*
X-10160D02*
D03*
X10160D02*
D03*
X15240D02*
D03*
X-15240D02*
D03*
Y15240D02*
D03*
X-10160D02*
D03*
X10160D02*
D03*
X15240D02*
D03*
Y5080D02*
D03*
X10160D02*
D03*
X-10160D02*
D03*
X-15240D02*
D03*
Y0D02*
D03*
X15240D02*
D03*
X10160D02*
D03*
X-10160D02*
D03*
X-5080D02*
D03*
X0D02*
D03*
X5080D02*
D03*
Y5080D02*
D03*
X0D02*
D03*
X-5080D02*
D03*
D12*
X19050Y21590D02*
D03*
Y24130D02*
D03*
X3810Y24130D02*
D03*
X-3810D02*
D03*
X-19050D02*
D03*
X13970Y21590D02*
D03*
X11430Y24130D02*
D03*
X13970D02*
D03*
X1270Y21590D02*
D03*
Y24130D02*
D03*
X3810Y21590D02*
D03*
X6350Y24130D02*
D03*
Y21590D02*
D03*
X8890Y24130D02*
D03*
Y21590D02*
D03*
X-8890D02*
D03*
Y24130D02*
D03*
X-6350D02*
D03*
X-1270Y21590D02*
D03*
X16510D02*
D03*
X-6350D02*
D03*
X-3810D02*
D03*
X-1270Y24130D02*
D03*
X-11430Y21590D02*
D03*
X-11430Y24130D02*
D03*
X-13970Y21590D02*
D03*
X-13970Y24130D02*
D03*
X-16510Y21590D02*
D03*
X-16510Y24130D02*
D03*
X-19050Y21590D02*
D03*
X11430Y21590D02*
D03*
X16510Y24130D02*
D03*
X21590Y19050D02*
D03*
X24130Y19050D02*
D03*
X24130Y16510D02*
D03*
X21590Y16510D02*
D03*
X24130Y13970D02*
D03*
X21590Y13970D02*
D03*
X24130Y11430D02*
D03*
X21590Y11430D02*
D03*
X21590Y1270D02*
D03*
X24130D02*
D03*
X21590Y3810D02*
D03*
X24130Y3810D02*
D03*
X21590Y6350D02*
D03*
X24130Y6350D02*
D03*
Y8890D02*
D03*
X21590D02*
D03*
Y-8890D02*
D03*
X24130D02*
D03*
X21590Y-6350D02*
D03*
X24130D02*
D03*
X21590Y-3810D02*
D03*
X24130D02*
D03*
Y-1270D02*
D03*
X21590D02*
D03*
X21590Y-19050D02*
D03*
X24130Y-19050D02*
D03*
X21590Y-16510D02*
D03*
X24130Y-16510D02*
D03*
X21590Y-13970D02*
D03*
X24130Y-13970D02*
D03*
Y-11430D02*
D03*
X21590Y-11430D02*
D03*
X-24130Y-11430D02*
D03*
X-21590D02*
D03*
Y-13970D02*
D03*
X-24130D02*
D03*
X-21590Y-16510D02*
D03*
X-24130D02*
D03*
X-21590Y-19050D02*
D03*
X-24130D02*
D03*
Y-1270D02*
D03*
X-21590D02*
D03*
Y-3810D02*
D03*
X-24130D02*
D03*
X-21590Y-6350D02*
D03*
X-24130D02*
D03*
X-21590Y-8890D02*
D03*
X-24130D02*
D03*
Y8890D02*
D03*
X-21590D02*
D03*
Y6350D02*
D03*
X-24130D02*
D03*
X-21590Y3810D02*
D03*
X-24130D02*
D03*
X-21590Y1270D02*
D03*
X-24130D02*
D03*
Y11430D02*
D03*
X-21590D02*
D03*
X-24130Y13970D02*
D03*
X-21590D02*
D03*
X-24130Y16510D02*
D03*
X-21590D02*
D03*
Y19050D02*
D03*
X-24130D02*
D03*
%TF.MD5,b14ca926b9d04d137d7364037fa83369*%
M02*
