%TF.GenerationSoftware,Altium Limited,Altium Designer,25.1.2 (22)*%
G04 Layer_Physical_Order=1*
G04 Layer_Color=3750343*
%FSLAX45Y45*%
%MOMM*%
%TF.SameCoordinates,8A5611BD-E494-464C-ACB0-7622FCA93B82*%
%TF.FilePolarity,Positive*%
%TF.FileFunction,Copper,L1,Top,Signal*%
%TF.Part,Single*%
%TFFileComment,PewCB.BlankType,3x3Base*%
G01*
G75*
%TA.AperFunction,ViaPad*%
%ADD10C,1.80000*%
%ADD11C,4.40000*%
%ADD12C,0.60000*%
G36*
X1884609Y-1884609D02*
X-1884609D01*
Y1524000D01*
Y1547636D01*
X-1878439Y1594503D01*
X-1866205Y1640162D01*
X-1848114Y1683836D01*
X-1824480Y1724773D01*
X-1795703Y1762276D01*
X-1762277Y1795702D01*
X-1724773Y1824479D01*
X-1683837Y1848114D01*
X-1640162Y1866205D01*
X-1594503Y1878439D01*
X-1547636Y1884609D01*
X1884609D01*
Y-1884609D01*
D02*
G37*
D10*
X1397001Y-1143001D02*
D03*
Y-889000D02*
D03*
Y-635000D02*
D03*
X1651001Y-381000D02*
D03*
Y-889000D02*
D03*
Y-1143001D02*
D03*
Y-635000D02*
D03*
X1397001Y-381000D02*
D03*
Y-127001D02*
D03*
X1651001Y-127000D02*
D03*
X1397001Y127000D02*
D03*
X1651001D02*
D03*
X1397001Y380999D02*
D03*
X1651001Y381000D02*
D03*
X1651000Y635000D02*
D03*
X1397001Y635000D02*
D03*
Y888999D02*
D03*
X1651001Y889000D02*
D03*
X1651001Y1142999D02*
D03*
X1397000Y1143000D02*
D03*
X-1651000Y-635000D02*
D03*
X-1143000Y1397000D02*
D03*
X1143000Y1397000D02*
D03*
X1143000Y1651000D02*
D03*
X889000Y1397000D02*
D03*
X381000Y1651000D02*
D03*
X-1143000D02*
D03*
X889000Y1651000D02*
D03*
X635000D02*
D03*
X-127000D02*
D03*
X127000D02*
D03*
X-381000D02*
D03*
X-889000D02*
D03*
X-635000Y1651000D02*
D03*
X-381000Y1397000D02*
D03*
X381000Y1397000D02*
D03*
X635000D02*
D03*
X127000D02*
D03*
X-127000D02*
D03*
X-635000D02*
D03*
X-889000D02*
D03*
X-1651000Y-1143000D02*
D03*
X-1397000D02*
D03*
X-1651000Y889000D02*
D03*
X-1397000Y1143000D02*
D03*
Y889000D02*
D03*
X-1651000Y1143000D02*
D03*
X-1397000Y-635000D02*
D03*
X-1651000Y-127000D02*
D03*
X-1397000D02*
D03*
X-1651000Y381000D02*
D03*
X-1397000Y635000D02*
D03*
X-1651000Y-381000D02*
D03*
Y635000D02*
D03*
X-1397000Y-381000D02*
D03*
X-1651000Y127000D02*
D03*
X-1397000D02*
D03*
Y381000D02*
D03*
X-1651000Y-889000D02*
D03*
X-1397000D02*
D03*
D11*
X-1524000Y1524000D02*
D03*
X1524000D02*
D03*
X-1524000Y-1524000D02*
D03*
X1524000D02*
D03*
D12*
X-762000Y-762000D02*
D03*
Y254000D02*
D03*
X-254000Y-762000D02*
D03*
X762000D02*
D03*
Y-254000D02*
D03*
X254000Y-762000D02*
D03*
X-762000Y-254000D02*
D03*
X-254000D02*
D03*
X254000D02*
D03*
X-254000Y254000D02*
D03*
X254000D02*
D03*
X762000D02*
D03*
X-762000Y762000D02*
D03*
X-254000D02*
D03*
X254000D02*
D03*
X762000D02*
D03*
%TF.MD5,cbaae69f845ae3b422535b19da0d6cbd*%
M02*
