%TF.GenerationSoftware,Altium Limited,Altium Designer,25.1.2 (22)*%
G04 Layer_Color=8388736*
%FSLAX45Y45*%
%MOMM*%
%TF.SameCoordinates,33692A6C-059A-43B3-A3E4-65E9C39BF424*%
%TF.FilePolarity,Negative*%
%TF.FileFunction,Soldermask,Top*%
%TF.Part,Single*%
%TFFileComment,PewCB.BlankType,3x3Base*%
G01*
G75*
%TA.AperFunction,ViaPad*%
%ADD13C,4.45000*%
%ADD14C,1.65000*%
D13*
X-2286000Y2286000D02*
D03*
X2286000D02*
D03*
X-2286000Y-2286000D02*
D03*
X2286000D02*
D03*
D14*
X-1651000Y2159000D02*
D03*
X-1397000D02*
D03*
X-889000D02*
D03*
X-635000D02*
D03*
X-127000D02*
D03*
X-381000D02*
D03*
X-1143000Y2159000D02*
D03*
X-1397000Y2413000D02*
D03*
X-1651000Y2413000D02*
D03*
X-1143000D02*
D03*
X-635000D02*
D03*
X-889000D02*
D03*
X-127000D02*
D03*
X127000D02*
D03*
X-1905000Y2413000D02*
D03*
X-381000D02*
D03*
X127000Y2159000D02*
D03*
X381000Y2413000D02*
D03*
X381000Y2159000D02*
D03*
X635000D02*
D03*
Y2413000D02*
D03*
X889000Y2159000D02*
D03*
Y2413000D02*
D03*
X1143000Y2159000D02*
D03*
Y2413000D02*
D03*
X1397000D02*
D03*
X1397000Y2159000D02*
D03*
X1651000D02*
D03*
X1905000Y2159000D02*
D03*
X1651000Y2413000D02*
D03*
X1905000D02*
D03*
X-1905000Y2159000D02*
D03*
X-2413000Y-1905000D02*
D03*
Y-1397000D02*
D03*
Y-1651000D02*
D03*
Y-1143000D02*
D03*
Y-889000D02*
D03*
Y-635000D02*
D03*
Y-381000D02*
D03*
Y-127000D02*
D03*
X-2159000Y-381000D02*
D03*
Y-1651000D02*
D03*
Y-1143000D02*
D03*
Y-1397000D02*
D03*
Y-1905000D02*
D03*
Y-889000D02*
D03*
Y-635000D02*
D03*
Y-127000D02*
D03*
X-2413000Y1397000D02*
D03*
Y1651000D02*
D03*
Y127000D02*
D03*
X-2159000Y635000D02*
D03*
X-2413000D02*
D03*
Y381000D02*
D03*
Y1905000D02*
D03*
Y1143000D02*
D03*
Y889000D02*
D03*
X-2159000Y127000D02*
D03*
Y381000D02*
D03*
Y889000D02*
D03*
Y1143000D02*
D03*
Y1397000D02*
D03*
Y1651000D02*
D03*
Y1905000D02*
D03*
X2158999Y-1397000D02*
D03*
X2159000Y-381001D02*
D03*
Y-635000D02*
D03*
Y-127000D02*
D03*
Y-889000D02*
D03*
Y-1651000D02*
D03*
Y127000D02*
D03*
X2159000Y-1905000D02*
D03*
X2159001Y-1143000D02*
D03*
X2413000Y381000D02*
D03*
Y-889000D02*
D03*
Y-1397000D02*
D03*
Y-635000D02*
D03*
Y-127000D02*
D03*
Y-1905000D02*
D03*
Y-1651000D02*
D03*
Y-1142999D02*
D03*
Y-381001D02*
D03*
Y127000D02*
D03*
X2159000Y381000D02*
D03*
Y634999D02*
D03*
X2413000Y635000D02*
D03*
X2159000Y889000D02*
D03*
X2413000D02*
D03*
X2159000Y1143000D02*
D03*
X2413000Y1143000D02*
D03*
X2413000Y1397000D02*
D03*
X2159000Y1397000D02*
D03*
Y1651000D02*
D03*
X2413000Y1651000D02*
D03*
X2413000Y1905000D02*
D03*
X2158999Y1905000D02*
D03*
%TF.MD5,ce5e3f81142196d8c48e5c0e73ba628e*%
M02*
