%TF.GenerationSoftware,Altium Limited,Altium Designer,25.1.2 (22)*%
G04 Layer_Color=0*
%FSLAX45Y45*%
%MOMM*%
%TF.SameCoordinates,D1BCDF9C-2043-42A4-8DDB-48C6DFBA14D3*%
%TF.FilePolarity,Positive*%
%TF.FileFunction,Plated,1,2,PTH,Drill*%
%TF.Part,Single*%
%TFFileComment,PewCB.BlankType,3x3Base*%
G01*
G75*
%TA.AperFunction,OtherDrill,Pad Free-1 (-24.13mm,1.27mm)*%
%ADD12C,1.00000*%
%TA.AperFunction,OtherDrill,Pad Free-1 (21.59mm,19.05mm)*%
%ADD13C,1.00000*%
%TA.AperFunction,OtherDrill,Pad Free-1 (24.13mm,19.05mm)*%
%ADD14C,1.00000*%
%TA.AperFunction,OtherDrill,Pad Free-1 (24.13mm,16.51mm)*%
%ADD15C,1.00000*%
%TA.AperFunction,OtherDrill,Pad Free-1 (21.59mm,16.51mm)*%
%ADD16C,1.00000*%
%TA.AperFunction,OtherDrill,Pad Free-1 (21.59mm,13.97mm)*%
%ADD17C,1.00000*%
%TA.AperFunction,OtherDrill,Pad Free-1 (24.13mm,13.97mm)*%
%ADD18C,1.00000*%
%TA.AperFunction,OtherDrill,Pad Free-1 (24.13mm,11.43mm)*%
%ADD19C,1.00000*%
%TA.AperFunction,OtherDrill,Pad Free-1 (21.59mm,11.43mm)*%
%ADD20C,1.00000*%
%TA.AperFunction,OtherDrill,Pad Free-1 (24.13mm,8.89mm)*%
%ADD21C,1.00000*%
%TA.AperFunction,OtherDrill,Pad Free-1 (21.59mm,8.89mm)*%
%ADD22C,1.00000*%
%TA.AperFunction,OtherDrill,Pad Free-1 (24.13mm,6.35mm)*%
%ADD23C,1.00000*%
%TA.AperFunction,OtherDrill,Pad Free-1 (21.59mm,6.35mm)*%
%ADD24C,1.00000*%
%TA.AperFunction,OtherDrill,Pad Free-1 (21.59mm,3.81mm)*%
%ADD25C,1.00000*%
%TA.AperFunction,OtherDrill,Pad Free-1 (24.13mm,1.27mm)*%
%ADD26C,1.00000*%
%TA.AperFunction,OtherDrill,Pad Free-1 (24.13mm,-3.81mm)*%
%ADD27C,1.00000*%
%TA.AperFunction,OtherDrill,Pad Free-1 (24.13mm,-11.43mm)*%
%ADD28C,1.00000*%
%TA.AperFunction,OtherDrill,Pad Free-1 (24.13mm,-16.51mm)*%
%ADD29C,1.00000*%
%TA.AperFunction,OtherDrill,Pad Free-1 (24.13mm,-19.05mm)*%
%ADD30C,1.00000*%
%TA.AperFunction,OtherDrill,Pad Free-1 (24.13mm,-1.27mm)*%
%ADD31C,1.00000*%
%TA.AperFunction,OtherDrill,Pad Free-1 (24.13mm,-6.35mm)*%
%ADD32C,1.00000*%
%TA.AperFunction,OtherDrill,Pad Free-1 (24.13mm,-13.97mm)*%
%ADD33C,1.00000*%
%TA.AperFunction,OtherDrill,Pad Free-1 (24.13mm,-8.89mm)*%
%ADD34C,1.00000*%
%TA.AperFunction,OtherDrill,Pad Free-1 (24.13mm,3.81mm)*%
%ADD35C,1.00000*%
%TA.AperFunction,OtherDrill,Pad Free-1 (21.59mm,-11.43mm)*%
%ADD36C,1.00000*%
%TA.AperFunction,OtherDrill,Pad Free-1 (21.59mm,-19.05mm)*%
%ADD37C,1.00000*%
%TA.AperFunction,OtherDrill,Pad Free-1 (21.59mm,1.27mm)*%
%ADD38C,1.00000*%
%TA.AperFunction,OtherDrill,Pad Free-1 (21.59mm,-16.51mm)*%
%ADD39C,1.00000*%
%TA.AperFunction,OtherDrill,Pad Free-1 (21.59mm,-8.89mm)*%
%ADD40C,1.00000*%
%TA.AperFunction,OtherDrill,Pad Free-1 (21.59mm,-1.27mm)*%
%ADD41C,1.00000*%
%TA.AperFunction,OtherDrill,Pad Free-1 (21.59mm,-6.35mm)*%
%ADD42C,1.00000*%
%TA.AperFunction,OtherDrill,Pad Free-1 (21.59mm,-3.81mm)*%
%ADD43C,1.00000*%
%TA.AperFunction,OtherDrill,Pad Free-1 (21.59mm,-13.97mm)*%
%ADD44C,1.00000*%
%TA.AperFunction,OtherDrill,Pad Free-1 (-19.05mm,21.59mm)*%
%ADD45C,1.00000*%
%TA.AperFunction,OtherDrill,Pad Free-1 (19.05mm,24.13mm)*%
%ADD46C,1.00000*%
%TA.AperFunction,OtherDrill,Pad Free-1 (16.51mm,24.13mm)*%
%ADD47C,1.00000*%
%TA.AperFunction,OtherDrill,Pad Free-1 (19.05mm,21.59mm)*%
%ADD48C,1.00000*%
%TA.AperFunction,OtherDrill,Pad Free-1 (16.51mm,21.59mm)*%
%ADD49C,1.00000*%
%TA.AperFunction,OtherDrill,Pad Free-1 (13.97mm,21.59mm)*%
%ADD50C,1.00000*%
%TA.AperFunction,OtherDrill,Pad Free-1 (13.97mm,24.13mm)*%
%ADD51C,1.00000*%
%TA.AperFunction,OtherDrill,Pad Free-1 (11.43mm,24.13mm)*%
%ADD52C,1.00000*%
%TA.AperFunction,OtherDrill,Pad Free-1 (11.43mm,21.59mm)*%
%ADD53C,1.00000*%
%TA.AperFunction,OtherDrill,Pad Free-1 (8.89mm,24.13mm)*%
%ADD54C,1.00000*%
%TA.AperFunction,OtherDrill,Pad Free-1 (8.89mm,21.59mm)*%
%ADD55C,1.00000*%
%TA.AperFunction,OtherDrill,Pad Free-1 (6.35mm,24.13mm)*%
%ADD56C,1.00000*%
%TA.AperFunction,OtherDrill,Pad Free-1 (6.35mm,21.59mm)*%
%ADD57C,1.00000*%
%TA.AperFunction,OtherDrill,Pad Free-1 (3.81mm,21.59mm)*%
%ADD58C,1.00000*%
%TA.AperFunction,OtherDrill,Pad Free-1 (3.81mm,24.13mm)*%
%ADD59C,1.00000*%
%TA.AperFunction,OtherDrill,Pad Free-1 (1.27mm,21.59mm)*%
%ADD60C,1.00000*%
%TA.AperFunction,OtherDrill,Pad Free-1 (-3.81mm,24.13mm)*%
%ADD61C,1.00000*%
%TA.AperFunction,OtherDrill,Pad Free-1 (-19.05mm,24.13mm)*%
%ADD62C,1.00000*%
%TA.AperFunction,OtherDrill,Pad Free-1 (1.27mm,24.13mm)*%
%ADD63C,1.00000*%
%TA.AperFunction,OtherDrill,Pad Free-1 (-1.27mm,24.13mm)*%
%ADD64C,1.00000*%
%TA.AperFunction,OtherDrill,Pad Free-1 (-8.89mm,24.13mm)*%
%ADD65C,1.00000*%
%TA.AperFunction,OtherDrill,Pad Free-1 (-6.35mm,24.13mm)*%
%ADD66C,1.00000*%
%TA.AperFunction,OtherDrill,Pad Free-1 (-11.43mm,24.13mm)*%
%ADD67C,1.00000*%
%TA.AperFunction,OtherDrill,Pad Free-1 (-16.51mm,24.13mm)*%
%ADD68C,1.00000*%
%TA.AperFunction,OtherDrill,Pad Free-1 (-13.97mm,24.13mm)*%
%ADD69C,1.00000*%
%TA.AperFunction,OtherDrill,Pad Free-1 (-11.43mm,21.59mm)*%
%ADD70C,1.00000*%
%TA.AperFunction,OtherDrill,Pad Free-1 (-3.81mm,21.59mm)*%
%ADD71C,1.00000*%
%TA.AperFunction,OtherDrill,Pad Free-1 (-1.27mm,21.59mm)*%
%ADD72C,1.00000*%
%TA.AperFunction,OtherDrill,Pad Free-1 (-6.35mm,21.59mm)*%
%ADD73C,1.00000*%
%TA.AperFunction,OtherDrill,Pad Free-1 (-8.89mm,21.59mm)*%
%ADD74C,1.00000*%
%TA.AperFunction,OtherDrill,Pad Free-1 (-13.97mm,21.59mm)*%
%ADD75C,1.00000*%
%TA.AperFunction,OtherDrill,Pad Free-1 (-16.51mm,21.59mm)*%
%ADD76C,1.00000*%
%TA.AperFunction,OtherDrill,Pad Free-1 (-21.59mm,-8.89mm)*%
%ADD77C,1.00000*%
%TA.AperFunction,OtherDrill,Pad Free-1 (-24.13mm,-19.05mm)*%
%ADD78C,1.00000*%
%TA.AperFunction,OtherDrill,Pad Free-1 (-24.13mm,-13.97mm)*%
%ADD79C,1.00000*%
%TA.AperFunction,OtherDrill,Pad Free-1 (-24.13mm,-16.51mm)*%
%ADD80C,1.00000*%
%TA.AperFunction,OtherDrill,Pad Free-1 (-24.13mm,-11.43mm)*%
%ADD81C,1.00000*%
%TA.AperFunction,OtherDrill,Pad Free-1 (-24.13mm,-8.89mm)*%
%ADD82C,1.00000*%
%TA.AperFunction,OtherDrill,Pad Free-1 (-24.13mm,-6.35mm)*%
%ADD83C,1.00000*%
%TA.AperFunction,OtherDrill,Pad Free-1 (-24.13mm,-3.81mm)*%
%ADD84C,1.00000*%
%TA.AperFunction,OtherDrill,Pad Free-1 (-21.59mm,-13.97mm)*%
%ADD85C,1.00000*%
%TA.AperFunction,OtherDrill,Pad Free-1 (-21.59mm,-11.43mm)*%
%ADD86C,1.00000*%
%TA.AperFunction,OtherDrill,Pad Free-1 (-21.59mm,-16.51mm)*%
%ADD87C,1.00000*%
%TA.AperFunction,OtherDrill,Pad Free-1 (-21.59mm,-3.81mm)*%
%ADD88C,1.00000*%
%TA.AperFunction,OtherDrill,Pad Free-1 (-21.59mm,-19.05mm)*%
%ADD89C,1.00000*%
%TA.AperFunction,OtherDrill,Pad Free-1 (-21.59mm,-6.35mm)*%
%ADD90C,1.00000*%
%TA.AperFunction,OtherDrill,Pad Free-1 (-24.13mm,16.51mm)*%
%ADD91C,1.00000*%
%TA.AperFunction,OtherDrill,Pad Free-1 (-21.59mm,19.05mm)*%
%ADD92C,1.00000*%
%TA.AperFunction,OtherDrill,Pad Free-1 (-21.59mm,16.51mm)*%
%ADD93C,1.00000*%
%TA.AperFunction,OtherDrill,Pad Free-1 (-24.13mm,19.05mm)*%
%ADD94C,1.00000*%
%TA.AperFunction,OtherDrill,Pad Free-1 (-21.59mm,1.27mm)*%
%ADD95C,1.00000*%
%TA.AperFunction,OtherDrill,Pad Free-1 (-24.13mm,6.35mm)*%
%ADD96C,1.00000*%
%TA.AperFunction,OtherDrill,Pad Free-1 (-21.59mm,6.35mm)*%
%ADD97C,1.00000*%
%TA.AperFunction,OtherDrill,Pad Free-1 (-24.13mm,11.43mm)*%
%ADD98C,1.00000*%
%TA.AperFunction,OtherDrill,Pad Free-1 (-21.59mm,13.97mm)*%
%ADD99C,1.00000*%
%TA.AperFunction,OtherDrill,Pad Free-1 (-24.13mm,3.81mm)*%
%ADD100C,1.00000*%
%TA.AperFunction,OtherDrill,Pad Free-1 (-24.13mm,13.97mm)*%
%ADD101C,1.00000*%
%TA.AperFunction,OtherDrill,Pad Free-1 (-21.59mm,3.81mm)*%
%ADD102C,1.00000*%
%TA.AperFunction,OtherDrill,Pad Free-1 (-24.13mm,8.89mm)*%
%ADD103C,1.00000*%
%TA.AperFunction,OtherDrill,Pad Free-1 (-21.59mm,8.89mm)*%
%ADD104C,1.00000*%
%TA.AperFunction,OtherDrill,Pad Free-1 (-21.59mm,11.43mm)*%
%ADD105C,1.00000*%
%TA.AperFunction,OtherDrill,Pad Free-1 (-24.13mm,-1.27mm)*%
%ADD106C,1.00000*%
%TA.AperFunction,OtherDrill,Pad Free-1 (-21.59mm,-1.27mm)*%
%ADD107C,1.00000*%
%TA.AperFunction,OtherDrill,Pad Free-1 (-22.86mm,22.86mm)*%
G04:AMPARAMS|DCode=108|XSize=2.8mm|YSize=2.6mm|CornerRadius=0mm|HoleSize=0mm|Usage=FLASHONLY|Rotation=-45.000|XOffset=0mm|YOffset=0mm|HoleType=Round|Shape=Round|*
%AMOVALD108*
21,1,0.20000,2.60000,0.00000,0.00000,-45.0*
1,1,2.60000,-0.07071,0.07071*
1,1,2.60000,0.07071,-0.07071*
%
%ADD108OVALD108*%

%TA.AperFunction,OtherDrill,Pad Free-2 (22.86mm,22.86mm)*%
G04:AMPARAMS|DCode=109|XSize=2.8mm|YSize=2.6mm|CornerRadius=0mm|HoleSize=0mm|Usage=FLASHONLY|Rotation=45.000|XOffset=0mm|YOffset=0mm|HoleType=Round|Shape=Round|*
%AMOVALD109*
21,1,0.20000,2.60000,0.00000,0.00000,45.0*
1,1,2.60000,-0.07071,-0.07071*
1,1,2.60000,0.07071,0.07071*
%
%ADD109OVALD109*%

%TA.AperFunction,OtherDrill,Pad Free-4 (-22.86mm,-22.86mm)*%
G04:AMPARAMS|DCode=110|XSize=2.8mm|YSize=2.6mm|CornerRadius=0mm|HoleSize=0mm|Usage=FLASHONLY|Rotation=45.000|XOffset=0mm|YOffset=0mm|HoleType=Round|Shape=Round|*
%AMOVALD110*
21,1,0.20000,2.60000,0.00000,0.00000,45.0*
1,1,2.60000,-0.07071,-0.07071*
1,1,2.60000,0.07071,0.07071*
%
%ADD110OVALD110*%

%TA.AperFunction,OtherDrill,Pad Free-3 (22.86mm,-22.86mm)*%
G04:AMPARAMS|DCode=111|XSize=2.8mm|YSize=2.6mm|CornerRadius=0mm|HoleSize=0mm|Usage=FLASHONLY|Rotation=-45.000|XOffset=0mm|YOffset=0mm|HoleType=Round|Shape=Round|*
%AMOVALD111*
21,1,0.20000,2.60000,0.00000,0.00000,-45.0*
1,1,2.60000,-0.07071,0.07071*
1,1,2.60000,0.07071,-0.07071*
%
%ADD111OVALD111*%

%TA.AperFunction,ViaDrill,NotFilled*%
%ADD112C,0.30000*%
D12*
X-2413000Y127000D02*
D03*
D13*
X2158999Y1905000D02*
D03*
D14*
X2413000Y1905000D02*
D03*
D15*
X2413000Y1651000D02*
D03*
D16*
X2159000Y1651000D02*
D03*
D17*
Y1397000D02*
D03*
D18*
X2413000Y1397000D02*
D03*
D19*
X2413000Y1143000D02*
D03*
D20*
X2159000Y1143000D02*
D03*
D21*
X2413000Y889000D02*
D03*
D22*
X2159000D02*
D03*
D23*
X2413000Y635000D02*
D03*
D24*
X2159000Y634999D02*
D03*
D25*
Y381000D02*
D03*
D26*
X2413000Y127000D02*
D03*
D27*
Y-381001D02*
D03*
D28*
Y-1142999D02*
D03*
D29*
Y-1651000D02*
D03*
D30*
Y-1905000D02*
D03*
D31*
Y-127000D02*
D03*
D32*
Y-635000D02*
D03*
D33*
Y-1397000D02*
D03*
D34*
Y-889000D02*
D03*
D35*
Y381000D02*
D03*
D36*
X2159001Y-1143000D02*
D03*
D37*
X2159000Y-1905000D02*
D03*
D38*
X2159000Y127000D02*
D03*
D39*
Y-1651000D02*
D03*
D40*
Y-889000D02*
D03*
D41*
Y-127000D02*
D03*
D42*
Y-635000D02*
D03*
D43*
Y-381001D02*
D03*
D44*
X2158999Y-1397000D02*
D03*
D45*
X-1905000Y2159000D02*
D03*
D46*
X1905000Y2413000D02*
D03*
D47*
X1651000D02*
D03*
D48*
X1905000Y2159000D02*
D03*
D49*
X1651000Y2159000D02*
D03*
D50*
X1397000D02*
D03*
D51*
X1397000Y2413000D02*
D03*
D52*
X1143000D02*
D03*
D53*
Y2159000D02*
D03*
D54*
X889000Y2413000D02*
D03*
D55*
Y2159000D02*
D03*
D56*
X635000Y2413000D02*
D03*
D57*
Y2159000D02*
D03*
D58*
X381000D02*
D03*
D59*
X381000Y2413000D02*
D03*
D60*
X127000Y2159000D02*
D03*
D61*
X-381000Y2413000D02*
D03*
D62*
X-1905000D02*
D03*
D63*
X127000Y2413000D02*
D03*
D64*
X-127000D02*
D03*
D65*
X-889000D02*
D03*
D66*
X-635000D02*
D03*
D67*
X-1143000D02*
D03*
D68*
X-1651000D02*
D03*
D69*
X-1397000Y2413000D02*
D03*
D70*
X-1143000Y2159000D02*
D03*
D71*
X-381000Y2159000D02*
D03*
D72*
X-127000D02*
D03*
D73*
X-635000D02*
D03*
D74*
X-889000D02*
D03*
D75*
X-1397000D02*
D03*
D76*
X-1651000D02*
D03*
D77*
X-2159000Y-889000D02*
D03*
D78*
X-2413000Y-1905000D02*
D03*
D79*
Y-1397000D02*
D03*
D80*
Y-1651000D02*
D03*
D81*
Y-1143000D02*
D03*
D82*
Y-889000D02*
D03*
D83*
Y-635000D02*
D03*
D84*
Y-381000D02*
D03*
D85*
X-2159000Y-1397000D02*
D03*
D86*
Y-1143000D02*
D03*
D87*
Y-1651000D02*
D03*
D88*
Y-381000D02*
D03*
D89*
Y-1905000D02*
D03*
D90*
Y-635000D02*
D03*
D91*
X-2413000Y1651000D02*
D03*
D92*
X-2159000Y1905000D02*
D03*
D93*
Y1651000D02*
D03*
D94*
X-2413000Y1905000D02*
D03*
D95*
X-2159000Y127000D02*
D03*
D96*
X-2413000Y635000D02*
D03*
D97*
X-2159000D02*
D03*
D98*
X-2413000Y1143000D02*
D03*
D99*
X-2159000Y1397000D02*
D03*
D100*
X-2413000Y381000D02*
D03*
D101*
Y1397000D02*
D03*
D102*
X-2159000Y381000D02*
D03*
D103*
X-2413000Y889000D02*
D03*
D104*
X-2159000D02*
D03*
D105*
Y1143000D02*
D03*
D106*
X-2413000Y-127000D02*
D03*
D107*
X-2159000D02*
D03*
D108*
X-2286000Y2286000D02*
D03*
D109*
X2286000D02*
D03*
D110*
X-2286000Y-2286000D02*
D03*
D111*
X2286000D02*
D03*
D112*
X-1524000Y0D02*
D03*
Y1016000D02*
D03*
Y-1016000D02*
D03*
Y-1524000D02*
D03*
Y-508000D02*
D03*
X-1016000Y-1524000D02*
D03*
Y-1016000D02*
D03*
Y-508000D02*
D03*
Y0D02*
D03*
X-508000Y-1524000D02*
D03*
Y-1016000D02*
D03*
Y-508000D02*
D03*
X0Y-1016000D02*
D03*
Y-1524000D02*
D03*
Y-508000D02*
D03*
Y0D02*
D03*
Y508000D02*
D03*
X-508000Y0D02*
D03*
X-1524000Y508000D02*
D03*
X-1016000D02*
D03*
X-508000D02*
D03*
X-1016000Y1016000D02*
D03*
X-508000D02*
D03*
X0D02*
D03*
X-1524000Y1524000D02*
D03*
X-1016000D02*
D03*
X-508000D02*
D03*
X508000Y-508000D02*
D03*
Y-1524000D02*
D03*
Y-1016000D02*
D03*
Y0D02*
D03*
X1016000Y-1524000D02*
D03*
Y-1016000D02*
D03*
Y0D02*
D03*
Y-508000D02*
D03*
X1524000Y-1016000D02*
D03*
Y-1524000D02*
D03*
Y0D02*
D03*
Y-508000D02*
D03*
X508000Y508000D02*
D03*
Y1016000D02*
D03*
Y1524000D02*
D03*
X1016000Y508000D02*
D03*
Y1524000D02*
D03*
Y1016000D02*
D03*
X1524000Y508000D02*
D03*
Y1016000D02*
D03*
Y1524000D02*
D03*
X0D02*
D03*
%TF.MD5,8c8be06ded47cc13240e158a67792710*%
M02*
