%TF.GenerationSoftware,Altium Limited,Altium Designer,25.1.2 (22)*%
G04 Layer_Physical_Order=2*
G04 Layer_Color=13712708*
%FSLAX45Y45*%
%MOMM*%
%TF.SameCoordinates,A82A3F4E-FEF6-4F29-9661-FF52835F25B1*%
%TF.FilePolarity,Positive*%
%TF.FileFunction,Copper,L2,Bot,Signal*%
%TF.Part,Single*%
%TFFileComment,PewCB.BlankType,5x5Base*%
G01*
G75*
%TA.AperFunction,ViaPad*%
%ADD10C,1.80000*%
%ADD11C,4.40000*%
%ADD12C,0.60000*%
G36*
X4191000Y-4191000D02*
X-4191000D01*
X-4191001Y3810000D01*
Y3814156D01*
X-4190820Y3822467D01*
X-4190457Y3830771D01*
X-4189914Y3839066D01*
X-4189189Y3847347D01*
X-4188284Y3855610D01*
X-4187199Y3863851D01*
X-4185934Y3872067D01*
X-4184491Y3880253D01*
X-4182869Y3888406D01*
X-4181070Y3896521D01*
X-4179095Y3904595D01*
X-4176943Y3912625D01*
X-4174617Y3920605D01*
X-4172117Y3928533D01*
X-4169445Y3936404D01*
X-4166602Y3944215D01*
X-4163590Y3951963D01*
X-4160408Y3959642D01*
X-4157061Y3967251D01*
X-4153548Y3974785D01*
X-4149871Y3982240D01*
X-4146033Y3989613D01*
X-4142035Y3996901D01*
X-4137878Y4004099D01*
X-4133566Y4011206D01*
X-4129100Y4018216D01*
X-4124482Y4025128D01*
X-4119714Y4031937D01*
X-4114798Y4038641D01*
X-4109738Y4045235D01*
X-4104535Y4051718D01*
X-4099192Y4058086D01*
X-4093711Y4064336D01*
X-4088095Y4070464D01*
X-4082347Y4076469D01*
X-4076469Y4082347D01*
X-4070465Y4088095D01*
X-4064336Y4093711D01*
X-4058087Y4099191D01*
X-4051719Y4104535D01*
X-4045236Y4109738D01*
X-4038641Y4114798D01*
X-4031938Y4119713D01*
X-4025129Y4124481D01*
X-4018217Y4129099D01*
X-4011206Y4133565D01*
X-4004100Y4137878D01*
X-3996901Y4142034D01*
X-3989613Y4146032D01*
X-3982240Y4149870D01*
X-3974785Y4153547D01*
X-3967251Y4157060D01*
X-3959643Y4160408D01*
X-3951963Y4163589D01*
X-3944216Y4166601D01*
X-3936404Y4169444D01*
X-3928533Y4172116D01*
X-3920605Y4174616D01*
X-3912625Y4176942D01*
X-3904596Y4179093D01*
X-3896522Y4181069D01*
X-3888406Y4182868D01*
X-3880253Y4184490D01*
X-3872067Y4185933D01*
X-3863851Y4187198D01*
X-3855610Y4188283D01*
X-3847347Y4189188D01*
X-3839066Y4189912D01*
X-3830771Y4190456D01*
X-3822467Y4190819D01*
X-3814156Y4191000D01*
X-3810000Y4191000D01*
Y4191000D01*
X4191000D01*
X4191000Y-4191000D01*
D02*
G37*
D10*
X-3936999Y-3175000D02*
D03*
X-3936998Y-3429000D02*
D03*
X-3682998Y-3175001D02*
D03*
Y-3429001D02*
D03*
X-3682999Y-2667001D02*
D03*
Y-2921000D02*
D03*
X-3936999Y-2921001D02*
D03*
X-3936999Y-2667000D02*
D03*
X3683002Y-3175001D02*
D03*
X3683002Y-3429001D02*
D03*
X3937002Y-3175001D02*
D03*
Y-3429001D02*
D03*
X3937002Y-2667001D02*
D03*
Y-2921001D02*
D03*
X3683002Y-2921001D02*
D03*
X3683002Y-2667001D02*
D03*
X3429000Y3937000D02*
D03*
X3175000D02*
D03*
X3429000Y3683000D02*
D03*
X3175000Y3683000D02*
D03*
X2921000D02*
D03*
X2921000Y3937000D02*
D03*
X2667000D02*
D03*
Y3683000D02*
D03*
X3683000Y3429000D02*
D03*
X3937001Y3428999D02*
D03*
X3937001Y3175000D02*
D03*
X3683001Y3174999D02*
D03*
Y2921000D02*
D03*
X3937000Y2921000D02*
D03*
X3937001Y2667000D02*
D03*
X3683001Y2666999D02*
D03*
X3937001Y2413000D02*
D03*
X3683001D02*
D03*
X3937001Y2159000D02*
D03*
X3683001Y2158999D02*
D03*
Y1905000D02*
D03*
X3937001Y1651000D02*
D03*
Y1142999D02*
D03*
Y381000D02*
D03*
Y-127001D02*
D03*
Y-381000D02*
D03*
Y1397000D02*
D03*
Y889000D02*
D03*
Y127000D02*
D03*
Y635000D02*
D03*
Y1905000D02*
D03*
X3683001Y381000D02*
D03*
X3683001Y-381001D02*
D03*
X3683001Y1651000D02*
D03*
Y-127000D02*
D03*
Y635000D02*
D03*
Y1397000D02*
D03*
Y889000D02*
D03*
Y1142999D02*
D03*
X3683000Y127000D02*
D03*
X-3683000Y3429000D02*
D03*
Y3175000D02*
D03*
Y2921000D02*
D03*
Y2667000D02*
D03*
Y2413000D02*
D03*
Y1905000D02*
D03*
Y1651000D02*
D03*
X-3937000Y2413000D02*
D03*
Y2667000D02*
D03*
Y3429000D02*
D03*
Y1905000D02*
D03*
Y2159000D02*
D03*
X-3683000D02*
D03*
X-3937000Y1651000D02*
D03*
Y3175000D02*
D03*
Y2921000D02*
D03*
X-3683000Y1397000D02*
D03*
Y889000D02*
D03*
Y635000D02*
D03*
Y-381000D02*
D03*
Y127000D02*
D03*
Y381000D02*
D03*
Y-127000D02*
D03*
Y1143000D02*
D03*
X-3937000Y1397000D02*
D03*
Y1143000D02*
D03*
Y889000D02*
D03*
Y635000D02*
D03*
Y381000D02*
D03*
Y-127000D02*
D03*
Y127000D02*
D03*
Y-381000D02*
D03*
X-3429000Y3682999D02*
D03*
X381000Y3937000D02*
D03*
X127000D02*
D03*
X381000Y3683000D02*
D03*
X126999Y3683000D02*
D03*
X-127000D02*
D03*
X-127000Y3937000D02*
D03*
X-381001D02*
D03*
Y3683000D02*
D03*
X-635000Y3937000D02*
D03*
Y3683000D02*
D03*
X-889000Y3937000D02*
D03*
Y3683000D02*
D03*
X-1143000D02*
D03*
X-1143000Y3937000D02*
D03*
X-1397000Y3683000D02*
D03*
X-1905000Y3937000D02*
D03*
X-3429000D02*
D03*
X-1397000Y3937000D02*
D03*
X-1651000D02*
D03*
X-2413000D02*
D03*
X-2159001D02*
D03*
X-2667000D02*
D03*
X-3175000D02*
D03*
X-2921000Y3936999D02*
D03*
X-2667000Y3683000D02*
D03*
X-1905001Y3683000D02*
D03*
X-1651000D02*
D03*
X-2159000D02*
D03*
X-2413000D02*
D03*
X-2921001D02*
D03*
X-3175000D02*
D03*
X3683000Y-1397000D02*
D03*
X3683001Y-635001D02*
D03*
Y-889001D02*
D03*
Y-1651000D02*
D03*
X3683001Y-1905001D02*
D03*
X3683002Y-1143000D02*
D03*
X3937001Y-889001D02*
D03*
Y-1397001D02*
D03*
Y-635001D02*
D03*
Y-1905001D02*
D03*
Y-1651001D02*
D03*
Y-1143000D02*
D03*
X3937001Y-2413001D02*
D03*
Y-2159001D02*
D03*
X3683001Y-2413001D02*
D03*
X3683001Y-2159001D02*
D03*
X-3937000Y-2159000D02*
D03*
X-3936999Y-2413000D02*
D03*
X-3682999Y-2159000D02*
D03*
Y-2413001D02*
D03*
X-3683000Y-1142999D02*
D03*
Y-1651000D02*
D03*
Y-1905000D02*
D03*
Y-635000D02*
D03*
Y-1397000D02*
D03*
Y-889000D02*
D03*
X-3936999Y-1143000D02*
D03*
X-3937000Y-1905000D02*
D03*
X-3937000Y-1651000D02*
D03*
Y-889000D02*
D03*
Y-635000D02*
D03*
X-3937001Y-1397000D02*
D03*
X635000Y3937000D02*
D03*
Y3683000D02*
D03*
X889000Y3937000D02*
D03*
X889000Y3683000D02*
D03*
X1143000D02*
D03*
Y3937000D02*
D03*
X1397000Y3683000D02*
D03*
Y3937000D02*
D03*
X1651000Y3683000D02*
D03*
Y3937000D02*
D03*
X1905000D02*
D03*
X1905000Y3683000D02*
D03*
X2159000D02*
D03*
X2413000Y3683000D02*
D03*
X2159000Y3937000D02*
D03*
X2413000D02*
D03*
D11*
X-3810000Y3810000D02*
D03*
X3810000D02*
D03*
X-3810000Y-3810000D02*
D03*
X3810000D02*
D03*
D12*
X508000Y-3048000D02*
D03*
Y-2540000D02*
D03*
X2032000Y-3048000D02*
D03*
Y-2540000D02*
D03*
X1524000Y-3048000D02*
D03*
Y-2540000D02*
D03*
X1016000D02*
D03*
Y-3048000D02*
D03*
X-1016000D02*
D03*
Y-2540000D02*
D03*
X-508000D02*
D03*
Y-3048000D02*
D03*
X0Y-2540000D02*
D03*
Y-3048000D02*
D03*
X-1524000Y-2540000D02*
D03*
X-3048000D02*
D03*
Y-3048000D02*
D03*
X-2540000D02*
D03*
Y-2540000D02*
D03*
X-2032000D02*
D03*
Y-3048000D02*
D03*
X-1524000D02*
D03*
X2540000Y-2540000D02*
D03*
Y-3048000D02*
D03*
X3048000Y-2540000D02*
D03*
Y-3048000D02*
D03*
X2540000Y508000D02*
D03*
Y1016000D02*
D03*
Y0D02*
D03*
Y1524000D02*
D03*
X3048000Y1016000D02*
D03*
Y508000D02*
D03*
Y0D02*
D03*
Y1524000D02*
D03*
X2540000Y2540000D02*
D03*
Y2032000D02*
D03*
Y3048000D02*
D03*
X3048000D02*
D03*
Y2032000D02*
D03*
Y2540000D02*
D03*
Y-508000D02*
D03*
Y-2032000D02*
D03*
Y-1524000D02*
D03*
Y-1016000D02*
D03*
X2540000Y-508000D02*
D03*
Y-2032000D02*
D03*
Y-1016000D02*
D03*
Y-1524000D02*
D03*
X-1524000Y-508000D02*
D03*
Y-1016000D02*
D03*
Y-2032000D02*
D03*
X-2032000Y-1016000D02*
D03*
Y-2032000D02*
D03*
Y-1524000D02*
D03*
X-2540000Y-1016000D02*
D03*
Y-1524000D02*
D03*
Y-2032000D02*
D03*
X-3048000Y-508000D02*
D03*
Y-1016000D02*
D03*
Y-2032000D02*
D03*
Y-1524000D02*
D03*
X-1524000D02*
D03*
X0Y-508000D02*
D03*
Y-2032000D02*
D03*
Y-1524000D02*
D03*
Y-1016000D02*
D03*
X-508000Y-508000D02*
D03*
Y-2032000D02*
D03*
Y-1016000D02*
D03*
Y-1524000D02*
D03*
X-1016000Y-508000D02*
D03*
Y-1524000D02*
D03*
Y-1016000D02*
D03*
Y-2032000D02*
D03*
X-2032000Y-508000D02*
D03*
X-2540000D02*
D03*
X1016000Y-2032000D02*
D03*
Y-1016000D02*
D03*
Y-1524000D02*
D03*
Y-508000D02*
D03*
X1524000Y-1524000D02*
D03*
Y-1016000D02*
D03*
Y-2032000D02*
D03*
Y-508000D02*
D03*
X2032000Y-1016000D02*
D03*
Y-1524000D02*
D03*
Y-2032000D02*
D03*
Y-508000D02*
D03*
X508000Y-1524000D02*
D03*
Y-2032000D02*
D03*
Y-1016000D02*
D03*
Y-508000D02*
D03*
Y1524000D02*
D03*
Y1016000D02*
D03*
Y3048000D02*
D03*
Y2540000D02*
D03*
Y0D02*
D03*
Y508000D02*
D03*
X2032000Y2540000D02*
D03*
Y2032000D02*
D03*
Y3048000D02*
D03*
X1016000D02*
D03*
Y2540000D02*
D03*
Y2032000D02*
D03*
X1524000Y3048000D02*
D03*
Y2032000D02*
D03*
Y2540000D02*
D03*
X2032000Y1524000D02*
D03*
Y0D02*
D03*
Y508000D02*
D03*
Y1016000D02*
D03*
X1524000Y1524000D02*
D03*
Y0D02*
D03*
Y1016000D02*
D03*
Y508000D02*
D03*
X1016000Y1524000D02*
D03*
Y508000D02*
D03*
Y1016000D02*
D03*
Y0D02*
D03*
X508000Y2032000D02*
D03*
X-1524000D02*
D03*
X-2540000Y1524000D02*
D03*
X-2032000D02*
D03*
X-3048000Y2032000D02*
D03*
X-2540000D02*
D03*
X-2032000D02*
D03*
X-1016000Y0D02*
D03*
Y1016000D02*
D03*
Y508000D02*
D03*
Y1524000D02*
D03*
X-508000Y508000D02*
D03*
Y1016000D02*
D03*
Y0D02*
D03*
Y1524000D02*
D03*
X0Y1016000D02*
D03*
Y508000D02*
D03*
Y0D02*
D03*
Y1524000D02*
D03*
X-508000Y2540000D02*
D03*
Y2032000D02*
D03*
Y3048000D02*
D03*
X-1016000Y2032000D02*
D03*
Y2540000D02*
D03*
Y3048000D02*
D03*
X0D02*
D03*
Y2032000D02*
D03*
Y2540000D02*
D03*
X-1524000Y508000D02*
D03*
X-3048000D02*
D03*
Y0D02*
D03*
Y1016000D02*
D03*
Y1524000D02*
D03*
X-2540000Y0D02*
D03*
Y508000D02*
D03*
Y1016000D02*
D03*
X-2032000Y508000D02*
D03*
Y0D02*
D03*
Y1016000D02*
D03*
X-1524000Y0D02*
D03*
X-2032000Y3048000D02*
D03*
X-3048000Y2540000D02*
D03*
X-2540000D02*
D03*
X-2032000D02*
D03*
X-1524000D02*
D03*
X-3048000Y3048000D02*
D03*
X-2540000D02*
D03*
X-1524000D02*
D03*
Y1016000D02*
D03*
Y1524000D02*
D03*
%TF.MD5,3abc7120120a9783095d1b88d1d8ad56*%
M02*
