%TF.GenerationSoftware,Altium Limited,Altium Designer,25.1.2 (22)*%
G04 Layer_Physical_Order=2*
G04 Layer_Color=13712708*
%FSLAX45Y45*%
%MOMM*%
%TF.SameCoordinates,A53C4BF1-E350-4E6B-998F-B2D30D9428D4*%
%TF.FilePolarity,Positive*%
%TF.FileFunction,Copper,L2,Bot,Signal*%
%TF.Part,Single*%
%TFFileComment,PewCB.BlankType,5x5Base*%
G01*
G75*
%TA.AperFunction,ViaPad*%
%ADD10C,4.40000*%
%ADD11C,0.60000*%
%ADD12C,1.60000*%
G36*
X3810000Y-3810000D02*
X-3810000D01*
Y3429000D01*
Y3437313D01*
X-3809275Y3453925D01*
X-3807826Y3470488D01*
X-3805656Y3486973D01*
X-3802768Y3503347D01*
X-3799169Y3519580D01*
X-3794866Y3535640D01*
X-3789866Y3551497D01*
X-3784180Y3567122D01*
X-3777817Y3582483D01*
X-3770790Y3597552D01*
X-3763113Y3612300D01*
X-3754799Y3626700D01*
X-3745866Y3640722D01*
X-3736329Y3654342D01*
X-3726207Y3667533D01*
X-3715519Y3680271D01*
X-3704286Y3692529D01*
X-3692529Y3704286D01*
X-3680271Y3715519D01*
X-3667534Y3726207D01*
X-3654343Y3736328D01*
X-3640723Y3745865D01*
X-3626700Y3754799D01*
X-3612300Y3763112D01*
X-3597552Y3770790D01*
X-3582483Y3777817D01*
X-3567122Y3784179D01*
X-3551498Y3789866D01*
X-3535640Y3794866D01*
X-3519580Y3799169D01*
X-3503347Y3802768D01*
X-3486973Y3805655D01*
X-3470488Y3807826D01*
X-3453925Y3809275D01*
X-3437314Y3810000D01*
X3810000D01*
Y-3810000D01*
D02*
G37*
D10*
X-3429000Y3429000D02*
D03*
X3429000D02*
D03*
X-3429000Y-3429000D02*
D03*
X3429000D02*
D03*
D11*
X-1016000Y-1016000D02*
D03*
Y-1524000D02*
D03*
Y-2540000D02*
D03*
X-1524000Y-1524000D02*
D03*
Y-2540000D02*
D03*
Y-2032000D02*
D03*
X-2032000Y-1524000D02*
D03*
Y-2032000D02*
D03*
Y-2540000D02*
D03*
X-2540000Y-1016000D02*
D03*
Y-1524000D02*
D03*
Y-2540000D02*
D03*
Y-2032000D02*
D03*
X-1016000D02*
D03*
X508000Y-1016000D02*
D03*
Y-2540000D02*
D03*
Y-2032000D02*
D03*
Y-1524000D02*
D03*
X0Y-1016000D02*
D03*
Y-2540000D02*
D03*
Y-1524000D02*
D03*
Y-2032000D02*
D03*
X-508000Y-1016000D02*
D03*
Y-2032000D02*
D03*
Y-1524000D02*
D03*
Y-2540000D02*
D03*
X-1524000Y-1016000D02*
D03*
X-2032000D02*
D03*
X1524000Y-2540000D02*
D03*
Y-1524000D02*
D03*
Y-2032000D02*
D03*
Y-1016000D02*
D03*
X2032000Y-2032000D02*
D03*
Y-1524000D02*
D03*
Y-2540000D02*
D03*
Y-1016000D02*
D03*
X2540000Y-1524000D02*
D03*
Y-2032000D02*
D03*
Y-2540000D02*
D03*
Y-1016000D02*
D03*
X1016000Y-2032000D02*
D03*
Y-2540000D02*
D03*
Y-1524000D02*
D03*
Y-1016000D02*
D03*
Y1016000D02*
D03*
Y508000D02*
D03*
Y2540000D02*
D03*
Y2032000D02*
D03*
Y-508000D02*
D03*
Y0D02*
D03*
X2540000Y2032000D02*
D03*
Y1524000D02*
D03*
Y2540000D02*
D03*
X1524000D02*
D03*
Y2032000D02*
D03*
Y1524000D02*
D03*
X2032000Y2540000D02*
D03*
Y1524000D02*
D03*
Y2032000D02*
D03*
X2540000Y1016000D02*
D03*
Y-508000D02*
D03*
Y0D02*
D03*
Y508000D02*
D03*
X2032000Y1016000D02*
D03*
Y-508000D02*
D03*
Y508000D02*
D03*
Y0D02*
D03*
X1524000Y1016000D02*
D03*
Y0D02*
D03*
Y508000D02*
D03*
Y-508000D02*
D03*
X1016000Y1524000D02*
D03*
X-1016000D02*
D03*
X-2032000Y1016000D02*
D03*
X-1524000D02*
D03*
X-2540000Y1524000D02*
D03*
X-2032000D02*
D03*
X-1524000D02*
D03*
X-508000Y-508000D02*
D03*
Y508000D02*
D03*
Y0D02*
D03*
Y1016000D02*
D03*
X0Y0D02*
D03*
Y508000D02*
D03*
Y-508000D02*
D03*
Y1016000D02*
D03*
X508000Y508000D02*
D03*
Y0D02*
D03*
Y-508000D02*
D03*
Y1016000D02*
D03*
X0Y2032000D02*
D03*
Y1524000D02*
D03*
Y2540000D02*
D03*
X-508000Y1524000D02*
D03*
Y2032000D02*
D03*
Y2540000D02*
D03*
X508000D02*
D03*
Y1524000D02*
D03*
Y2032000D02*
D03*
X-1016000Y0D02*
D03*
X-2540000D02*
D03*
Y-508000D02*
D03*
Y508000D02*
D03*
Y1016000D02*
D03*
X-2032000Y-508000D02*
D03*
Y0D02*
D03*
Y508000D02*
D03*
X-1524000Y0D02*
D03*
Y-508000D02*
D03*
Y508000D02*
D03*
X-1016000Y-508000D02*
D03*
X-1524000Y2540000D02*
D03*
X-2540000Y2032000D02*
D03*
X-2032000D02*
D03*
X-1524000D02*
D03*
X-1016000D02*
D03*
X-2540000Y2540000D02*
D03*
X-2032000D02*
D03*
X-1016000D02*
D03*
Y508000D02*
D03*
Y1016000D02*
D03*
D12*
X2921000Y3556000D02*
D03*
X2667000D02*
D03*
X2921000Y3302000D02*
D03*
X2667000Y3302000D02*
D03*
X2413000D02*
D03*
X2413000Y3556000D02*
D03*
X2159000D02*
D03*
Y3302000D02*
D03*
X1905000Y3556000D02*
D03*
Y3302000D02*
D03*
X1651000Y3556000D02*
D03*
Y3302000D02*
D03*
X1397000D02*
D03*
X1397000Y3556000D02*
D03*
X1143000Y3302000D02*
D03*
Y3556000D02*
D03*
X-3556001Y-1905000D02*
D03*
X-3556001Y-1143000D02*
D03*
Y-1397000D02*
D03*
Y-2159000D02*
D03*
X-3556000Y-2413000D02*
D03*
X-3556000Y-1651000D02*
D03*
X-3302001Y-1397000D02*
D03*
Y-1905000D02*
D03*
Y-1143000D02*
D03*
Y-2413000D02*
D03*
Y-2159000D02*
D03*
Y-1650999D02*
D03*
X-3302000Y-2921001D02*
D03*
Y-2667000D02*
D03*
X-3556000Y-2921000D02*
D03*
X-3556001Y-2667000D02*
D03*
X3301999D02*
D03*
X3302000Y-2921000D02*
D03*
X3556000Y-2667000D02*
D03*
Y-2921001D02*
D03*
X3555999Y-1650999D02*
D03*
Y-2159000D02*
D03*
Y-2413000D02*
D03*
Y-1143000D02*
D03*
Y-1905000D02*
D03*
Y-1397000D02*
D03*
X3302000Y-1651000D02*
D03*
X3302000Y-2413000D02*
D03*
X3301999Y-2159000D02*
D03*
Y-1397000D02*
D03*
Y-1143000D02*
D03*
X3301999Y-1905000D02*
D03*
X-2667000Y3302000D02*
D03*
X-2413001D02*
D03*
X-1905000D02*
D03*
X-1651000D02*
D03*
X-1143000D02*
D03*
X-1397001D02*
D03*
X-2159000Y3302000D02*
D03*
X-2413000Y3555999D02*
D03*
X-2667000Y3556000D02*
D03*
X-2159000D02*
D03*
X-1651001D02*
D03*
X-1905000D02*
D03*
X-1143000D02*
D03*
X-889000D02*
D03*
X-2921000Y3556000D02*
D03*
X-1397000D02*
D03*
X-889000Y3302000D02*
D03*
X-635000Y3556000D02*
D03*
X-635000Y3302000D02*
D03*
X-381000D02*
D03*
Y3556000D02*
D03*
X-127000Y3302000D02*
D03*
Y3556000D02*
D03*
X126999Y3302000D02*
D03*
Y3556000D02*
D03*
X381000D02*
D03*
X381000Y3302000D02*
D03*
X634999D02*
D03*
X889000Y3302000D02*
D03*
X635000Y3556000D02*
D03*
X889000D02*
D03*
X-2921000Y3301999D02*
D03*
X-3556001Y-889000D02*
D03*
Y-381000D02*
D03*
Y-635000D02*
D03*
Y-127000D02*
D03*
Y127000D02*
D03*
Y381000D02*
D03*
Y635000D02*
D03*
Y889000D02*
D03*
X-3302001Y635000D02*
D03*
Y-635000D02*
D03*
Y-127000D02*
D03*
Y-381000D02*
D03*
Y-889000D02*
D03*
Y127000D02*
D03*
Y381000D02*
D03*
Y889000D02*
D03*
X-3556001Y2413000D02*
D03*
Y2667000D02*
D03*
Y1143000D02*
D03*
X-3302001Y1651000D02*
D03*
X-3556001D02*
D03*
Y1397000D02*
D03*
Y2921000D02*
D03*
Y2159000D02*
D03*
Y1905000D02*
D03*
X-3302001Y1143000D02*
D03*
Y1397000D02*
D03*
Y1905000D02*
D03*
Y2159000D02*
D03*
Y2413000D02*
D03*
Y2667000D02*
D03*
Y2921000D02*
D03*
X3301999Y-380999D02*
D03*
X3301999Y635000D02*
D03*
Y381000D02*
D03*
Y889000D02*
D03*
Y127000D02*
D03*
Y-634999D02*
D03*
Y1143000D02*
D03*
X3301999Y-889000D02*
D03*
X3302000Y-126999D02*
D03*
X3555999Y1397000D02*
D03*
Y127000D02*
D03*
Y-381000D02*
D03*
Y381000D02*
D03*
Y889000D02*
D03*
Y-889000D02*
D03*
Y-635000D02*
D03*
Y-126999D02*
D03*
Y635000D02*
D03*
Y1143000D02*
D03*
X3301999Y1397001D02*
D03*
Y1651000D02*
D03*
X3555999Y1651001D02*
D03*
X3301999Y1905000D02*
D03*
X3555999D02*
D03*
X3301999Y2159000D02*
D03*
X3555999Y2159000D02*
D03*
X3555999Y2413000D02*
D03*
X3301999Y2413001D02*
D03*
Y2667000D02*
D03*
X3555999Y2667000D02*
D03*
X3555999Y2921000D02*
D03*
X3301999Y2921001D02*
D03*
%TF.MD5,7ae3f36d5631f2cd4fb3e867aa0b7478*%
M02*
