%TF.GenerationSoftware,Altium Limited,Altium Designer,25.1.2 (22)*%
G04 Layer_Physical_Order=2*
G04 Layer_Color=13712708*
%FSLAX45Y45*%
%MOMM*%
%TF.SameCoordinates,B50184F2-1ECF-4BD0-85C6-9B9C31EAD940*%
%TF.FilePolarity,Positive*%
%TF.FileFunction,Copper,L2,Bot,Signal*%
%TF.Part,Single*%
%TFFileComment,PewCB.BlankType,5x5Base*%
G01*
G75*
%TA.AperFunction,ViaPad*%
%ADD10C,1.80000*%
%ADD11C,4.40000*%
%ADD12C,0.60000*%
G36*
X4191000Y-4191000D02*
X-4191000D01*
X-4191001Y3810000D01*
Y3834972D01*
X-4184482Y3884489D01*
X-4171556Y3932731D01*
X-4152443Y3978874D01*
X-4127471Y4022127D01*
X-4097066Y4061750D01*
X-4061750Y4097066D01*
X-4022127Y4127470D01*
X-3978874Y4152442D01*
X-3932732Y4171555D01*
X-3884489Y4184481D01*
X-3834972Y4191000D01*
X-3810000Y4191000D01*
Y4191000D01*
X4191000D01*
X4191000Y-4191000D01*
D02*
G37*
D10*
X-3936999Y-3175000D02*
D03*
X-3936998Y-3429000D02*
D03*
X-3682998Y-3175001D02*
D03*
Y-3429001D02*
D03*
X-3682999Y-2667001D02*
D03*
Y-2921000D02*
D03*
X-3936999Y-2921001D02*
D03*
X-3936999Y-2667000D02*
D03*
X3683002Y-3175001D02*
D03*
X3683002Y-3429001D02*
D03*
X3937002Y-3175001D02*
D03*
Y-3429001D02*
D03*
X3937002Y-2667001D02*
D03*
Y-2921001D02*
D03*
X3683002Y-2921001D02*
D03*
X3683002Y-2667001D02*
D03*
X3429000Y3937000D02*
D03*
X3175000D02*
D03*
X3429000Y3683000D02*
D03*
X3175000Y3683000D02*
D03*
X2921000D02*
D03*
X2921000Y3937000D02*
D03*
X2667000D02*
D03*
Y3683000D02*
D03*
X3683000Y3429000D02*
D03*
X3937001Y3428999D02*
D03*
X3937001Y3175000D02*
D03*
X3683001Y3174999D02*
D03*
Y2921000D02*
D03*
X3937000Y2921000D02*
D03*
X3937001Y2667000D02*
D03*
X3683001Y2666999D02*
D03*
X3937001Y2413000D02*
D03*
X3683001D02*
D03*
X3937001Y2159000D02*
D03*
X3683001Y2158999D02*
D03*
Y1905000D02*
D03*
X3937001Y1651000D02*
D03*
Y1142999D02*
D03*
Y381000D02*
D03*
Y-127001D02*
D03*
Y-381000D02*
D03*
Y1397000D02*
D03*
Y889000D02*
D03*
Y127000D02*
D03*
Y635000D02*
D03*
Y1905000D02*
D03*
X3683001Y381000D02*
D03*
X3683001Y-381001D02*
D03*
X3683001Y1651000D02*
D03*
Y-127000D02*
D03*
Y635000D02*
D03*
Y1397000D02*
D03*
Y889000D02*
D03*
Y1142999D02*
D03*
X3683000Y127000D02*
D03*
X-3683000Y3429000D02*
D03*
Y3175000D02*
D03*
Y2921000D02*
D03*
Y2667000D02*
D03*
Y2413000D02*
D03*
Y1905000D02*
D03*
Y1651000D02*
D03*
X-3937000Y2413000D02*
D03*
Y2667000D02*
D03*
Y3429000D02*
D03*
Y1905000D02*
D03*
Y2159000D02*
D03*
X-3683000D02*
D03*
X-3937000Y1651000D02*
D03*
Y3175000D02*
D03*
Y2921000D02*
D03*
X-3683000Y1397000D02*
D03*
Y889000D02*
D03*
Y635000D02*
D03*
Y-381000D02*
D03*
Y127000D02*
D03*
Y381000D02*
D03*
Y-127000D02*
D03*
Y1143000D02*
D03*
X-3937000Y1397000D02*
D03*
Y1143000D02*
D03*
Y889000D02*
D03*
Y635000D02*
D03*
Y381000D02*
D03*
Y-127000D02*
D03*
Y127000D02*
D03*
Y-381000D02*
D03*
X-3429000Y3682999D02*
D03*
X381000Y3937000D02*
D03*
X127000D02*
D03*
X381000Y3683000D02*
D03*
X126999Y3683000D02*
D03*
X-127000D02*
D03*
X-127000Y3937000D02*
D03*
X-381001D02*
D03*
Y3683000D02*
D03*
X-635000Y3937000D02*
D03*
Y3683000D02*
D03*
X-889000Y3937000D02*
D03*
Y3683000D02*
D03*
X-1143000D02*
D03*
X-1143000Y3937000D02*
D03*
X-1397000Y3683000D02*
D03*
X-1905000Y3937000D02*
D03*
X-3429000D02*
D03*
X-1397000Y3937000D02*
D03*
X-1651000D02*
D03*
X-2413000D02*
D03*
X-2159001D02*
D03*
X-2667000D02*
D03*
X-3175000D02*
D03*
X-2921000Y3936999D02*
D03*
X-2667000Y3683000D02*
D03*
X-1905001Y3683000D02*
D03*
X-1651000D02*
D03*
X-2159000D02*
D03*
X-2413000D02*
D03*
X-2921001D02*
D03*
X-3175000D02*
D03*
X3683000Y-1397000D02*
D03*
X3683001Y-635001D02*
D03*
Y-889001D02*
D03*
Y-1651000D02*
D03*
X3683001Y-1905001D02*
D03*
X3683002Y-1143000D02*
D03*
X3937001Y-889001D02*
D03*
Y-1397001D02*
D03*
Y-635001D02*
D03*
Y-1905001D02*
D03*
Y-1651001D02*
D03*
Y-1143000D02*
D03*
X3937001Y-2413001D02*
D03*
Y-2159001D02*
D03*
X3683001Y-2413001D02*
D03*
X3683001Y-2159001D02*
D03*
X-3937000Y-2159000D02*
D03*
X-3936999Y-2413000D02*
D03*
X-3682999Y-2159000D02*
D03*
Y-2413001D02*
D03*
X-3683000Y-1142999D02*
D03*
Y-1651000D02*
D03*
Y-1905000D02*
D03*
Y-635000D02*
D03*
Y-1397000D02*
D03*
Y-889000D02*
D03*
X-3936999Y-1143000D02*
D03*
X-3937000Y-1905000D02*
D03*
X-3937000Y-1651000D02*
D03*
Y-889000D02*
D03*
Y-635000D02*
D03*
X-3937001Y-1397000D02*
D03*
X635000Y3937000D02*
D03*
Y3683000D02*
D03*
X889000Y3937000D02*
D03*
X889000Y3683000D02*
D03*
X1143000D02*
D03*
Y3937000D02*
D03*
X1397000Y3683000D02*
D03*
Y3937000D02*
D03*
X1651000Y3683000D02*
D03*
Y3937000D02*
D03*
X1905000D02*
D03*
X1905000Y3683000D02*
D03*
X2159000D02*
D03*
X2413000Y3683000D02*
D03*
X2159000Y3937000D02*
D03*
X2413000D02*
D03*
D11*
X-3810000Y3810000D02*
D03*
X3810000D02*
D03*
X-3810000Y-3810000D02*
D03*
X3810000D02*
D03*
D12*
X508000Y-3048000D02*
D03*
Y-2540000D02*
D03*
X2032000Y-3048000D02*
D03*
Y-2540000D02*
D03*
X1524000Y-3048000D02*
D03*
Y-2540000D02*
D03*
X1016000D02*
D03*
Y-3048000D02*
D03*
X-1016000D02*
D03*
Y-2540000D02*
D03*
X-508000D02*
D03*
Y-3048000D02*
D03*
X0Y-2540000D02*
D03*
Y-3048000D02*
D03*
X-1524000Y-2540000D02*
D03*
X-3048000D02*
D03*
Y-3048000D02*
D03*
X-2540000D02*
D03*
Y-2540000D02*
D03*
X-2032000D02*
D03*
Y-3048000D02*
D03*
X-1524000D02*
D03*
X2540000Y-2540000D02*
D03*
Y-3048000D02*
D03*
X3048000Y-2540000D02*
D03*
Y-3048000D02*
D03*
X2540000Y508000D02*
D03*
Y1016000D02*
D03*
Y0D02*
D03*
Y1524000D02*
D03*
X3048000Y1016000D02*
D03*
Y508000D02*
D03*
Y0D02*
D03*
Y1524000D02*
D03*
X2540000Y2540000D02*
D03*
Y2032000D02*
D03*
Y3048000D02*
D03*
X3048000D02*
D03*
Y2032000D02*
D03*
Y2540000D02*
D03*
Y-508000D02*
D03*
Y-2032000D02*
D03*
Y-1524000D02*
D03*
Y-1016000D02*
D03*
X2540000Y-508000D02*
D03*
Y-2032000D02*
D03*
Y-1016000D02*
D03*
Y-1524000D02*
D03*
X-1524000Y-508000D02*
D03*
Y-1016000D02*
D03*
Y-2032000D02*
D03*
X-2032000Y-1016000D02*
D03*
Y-2032000D02*
D03*
Y-1524000D02*
D03*
X-2540000Y-1016000D02*
D03*
Y-1524000D02*
D03*
Y-2032000D02*
D03*
X-3048000Y-508000D02*
D03*
Y-1016000D02*
D03*
Y-2032000D02*
D03*
Y-1524000D02*
D03*
X-1524000D02*
D03*
X0Y-508000D02*
D03*
Y-2032000D02*
D03*
Y-1524000D02*
D03*
Y-1016000D02*
D03*
X-508000Y-508000D02*
D03*
Y-2032000D02*
D03*
Y-1016000D02*
D03*
Y-1524000D02*
D03*
X-1016000Y-508000D02*
D03*
Y-1524000D02*
D03*
Y-1016000D02*
D03*
Y-2032000D02*
D03*
X-2032000Y-508000D02*
D03*
X-2540000D02*
D03*
X1016000Y-2032000D02*
D03*
Y-1016000D02*
D03*
Y-1524000D02*
D03*
Y-508000D02*
D03*
X1524000Y-1524000D02*
D03*
Y-1016000D02*
D03*
Y-2032000D02*
D03*
Y-508000D02*
D03*
X2032000Y-1016000D02*
D03*
Y-1524000D02*
D03*
Y-2032000D02*
D03*
Y-508000D02*
D03*
X508000Y-1524000D02*
D03*
Y-2032000D02*
D03*
Y-1016000D02*
D03*
Y-508000D02*
D03*
Y1524000D02*
D03*
Y1016000D02*
D03*
Y3048000D02*
D03*
Y2540000D02*
D03*
Y0D02*
D03*
Y508000D02*
D03*
X2032000Y2540000D02*
D03*
Y2032000D02*
D03*
Y3048000D02*
D03*
X1016000D02*
D03*
Y2540000D02*
D03*
Y2032000D02*
D03*
X1524000Y3048000D02*
D03*
Y2032000D02*
D03*
Y2540000D02*
D03*
X2032000Y1524000D02*
D03*
Y0D02*
D03*
Y508000D02*
D03*
Y1016000D02*
D03*
X1524000Y1524000D02*
D03*
Y0D02*
D03*
Y1016000D02*
D03*
Y508000D02*
D03*
X1016000Y1524000D02*
D03*
Y508000D02*
D03*
Y1016000D02*
D03*
Y0D02*
D03*
X508000Y2032000D02*
D03*
X-1524000D02*
D03*
X-2540000Y1524000D02*
D03*
X-2032000D02*
D03*
X-3048000Y2032000D02*
D03*
X-2540000D02*
D03*
X-2032000D02*
D03*
X-1016000Y0D02*
D03*
Y1016000D02*
D03*
Y508000D02*
D03*
Y1524000D02*
D03*
X-508000Y508000D02*
D03*
Y1016000D02*
D03*
Y0D02*
D03*
Y1524000D02*
D03*
X0Y1016000D02*
D03*
Y508000D02*
D03*
Y0D02*
D03*
Y1524000D02*
D03*
X-508000Y2540000D02*
D03*
Y2032000D02*
D03*
Y3048000D02*
D03*
X-1016000Y2032000D02*
D03*
Y2540000D02*
D03*
Y3048000D02*
D03*
X0D02*
D03*
Y2032000D02*
D03*
Y2540000D02*
D03*
X-1524000Y508000D02*
D03*
X-3048000D02*
D03*
Y0D02*
D03*
Y1016000D02*
D03*
Y1524000D02*
D03*
X-2540000Y0D02*
D03*
Y508000D02*
D03*
Y1016000D02*
D03*
X-2032000Y508000D02*
D03*
Y0D02*
D03*
Y1016000D02*
D03*
X-1524000Y0D02*
D03*
X-2032000Y3048000D02*
D03*
X-3048000Y2540000D02*
D03*
X-2540000D02*
D03*
X-2032000D02*
D03*
X-1524000D02*
D03*
X-3048000Y3048000D02*
D03*
X-2540000D02*
D03*
X-1524000D02*
D03*
Y1016000D02*
D03*
Y1524000D02*
D03*
%TF.MD5,85416a561b5bfee3d5c0c3fa25089381*%
M02*
